<svg xmlns="http://www.w3.org/2000/svg" xmlns:xlink="http://www.w3.org/1999/xlink" width="500" zoomAndPan="magnify" viewBox="0 0 375 374.999991" height="500" preserveAspectRatio="xMidYMid meet" version="1.0"><defs><g/><clipPath id="9e7565012b"><path d="M 177.007812 131.179688 L 202.507812 131.179688 L 202.507812 156.679688 L 177.007812 156.679688 Z M 177.007812 131.179688 " clip-rule="nonzero"/></clipPath><clipPath id="1e3ff4cf38"><path d="M 40.636719 158.480469 L 56.386719 158.480469 L 56.386719 174.230469 L 40.636719 174.230469 Z M 40.636719 158.480469 " clip-rule="nonzero"/></clipPath></defs><g fill="#f7591f" fill-opacity="1"><g transform="translate(53.750115, 177.973435)"><g><path d="M 8 -20.734375 C 7.269531 -20.734375 6.71875 -20.421875 6.34375 -19.796875 C 6.175781 -19.515625 6.082031 -19.195312 6.0625 -18.84375 L 6.0625 0 C 6.0625 1.6875 5.535156 3.109375 4.484375 4.265625 C 3.441406 5.429688 2.144531 6.015625 0.59375 6.015625 L 0.59375 5.734375 C 1.582031 5.398438 2.414062 4.664062 3.09375 3.53125 C 3.769531 2.394531 4.109375 1.1875 4.109375 -0.09375 L 4.109375 -18.84375 C 4.097656 -19.363281 3.90625 -19.804688 3.53125 -20.171875 C 3.15625 -20.546875 2.707031 -20.734375 2.1875 -20.734375 L 1.796875 -20.734375 L 1.796875 -21.03125 L 8.390625 -21.03125 L 8.390625 -20.734375 Z M 8 -20.734375 "/></g></g></g><g fill="#000000" fill-opacity="1"><g transform="translate(63.484318, 177.973435)"><g><path d="M 2.078125 -0.296875 C 2.554688 -0.296875 2.957031 -0.453125 3.28125 -0.765625 C 3.613281 -1.078125 3.789062 -1.453125 3.8125 -1.890625 L 3.8125 -16.171875 C 3.8125 -16.609375 3.640625 -16.976562 3.296875 -17.28125 C 2.960938 -17.582031 2.554688 -17.734375 2.078125 -17.734375 L 1.65625 -17.734375 L 1.65625 -18.03125 L 10.421875 -18.03125 C 11.242188 -18.03125 11.960938 -18.085938 12.578125 -18.203125 C 13.203125 -18.328125 13.609375 -18.429688 13.796875 -18.515625 L 13.796875 -15.078125 L 13.46875 -15.109375 L 13.46875 -15.5625 C 13.46875 -15.976562 13.328125 -16.335938 13.046875 -16.640625 C 12.765625 -16.941406 12.398438 -17.09375 11.953125 -17.09375 L 5.703125 -17.09375 L 5.703125 -9.46875 L 10.84375 -9.46875 C 11.25 -9.46875 11.554688 -9.585938 11.765625 -9.828125 C 11.972656 -10.066406 12.078125 -10.367188 12.078125 -10.734375 L 12.078125 -11.125 L 12.40625 -11.125 L 12.40625 -6.90625 L 12.078125 -6.90625 L 12.078125 -7.296875 C 12.078125 -7.859375 11.867188 -8.238281 11.453125 -8.4375 C 11.285156 -8.5 11.113281 -8.539062 10.9375 -8.5625 L 5.703125 -8.5625 L 5.703125 -0.9375 L 10.421875 -0.9375 C 11.347656 -0.9375 12.125 -1.09375 12.75 -1.40625 C 13.382812 -1.726562 13.863281 -2.109375 14.1875 -2.546875 C 14.519531 -2.992188 14.859375 -3.578125 15.203125 -4.296875 L 15.5 -4.296875 L 13.859375 0 L 1.65625 0 L 1.65625 -0.296875 Z M 2.078125 -0.296875 "/></g></g></g><g fill="#000000" fill-opacity="1"><g transform="translate(79.879508, 177.973435)"><g><path d="M 27.15625 -17.734375 L 26.953125 -17.734375 C 25.753906 -17.734375 24.929688 -17.140625 24.484375 -15.953125 L 20.125 -2.96875 C 19.6875 -1.707031 19.457031 -0.597656 19.4375 0.359375 L 19.140625 0.359375 L 13.546875 -13.9375 L 9.640625 -2.96875 C 9.242188 -1.726562 9.023438 -0.617188 8.984375 0.359375 L 8.71875 0.359375 L 2.40625 -16.078125 C 1.945312 -17.179688 1.144531 -17.734375 0 -17.734375 L -0.234375 -17.734375 L -0.234375 -18.03125 L 5.953125 -18.03125 L 5.953125 -17.734375 L 5.703125 -17.734375 C 5.347656 -17.734375 5.070312 -17.617188 4.875 -17.390625 C 4.6875 -17.171875 4.59375 -16.953125 4.59375 -16.734375 C 4.59375 -16.515625 4.625 -16.304688 4.6875 -16.109375 L 8.6875 -3.875 L 13.765625 -18.515625 L 14.0625 -18.484375 L 19.4375 -4.78125 L 22.8125 -15.921875 C 22.90625 -16.203125 22.953125 -16.453125 22.953125 -16.671875 C 22.953125 -16.890625 22.867188 -17.117188 22.703125 -17.359375 C 22.546875 -17.609375 22.28125 -17.734375 21.90625 -17.734375 L 21.65625 -17.734375 L 21.65625 -18.03125 L 27.15625 -18.03125 Z M 27.15625 -17.734375 "/></g></g></g><g fill="#000000" fill-opacity="1"><g transform="translate(106.874526, 177.973435)"><g><path d="M 2.078125 -0.296875 C 2.554688 -0.296875 2.957031 -0.453125 3.28125 -0.765625 C 3.613281 -1.078125 3.789062 -1.453125 3.8125 -1.890625 L 3.8125 -16.171875 C 3.8125 -16.609375 3.640625 -16.976562 3.296875 -17.28125 C 2.960938 -17.582031 2.554688 -17.734375 2.078125 -17.734375 L 1.65625 -17.734375 L 1.65625 -18.03125 L 10.421875 -18.03125 C 11.242188 -18.03125 11.960938 -18.085938 12.578125 -18.203125 C 13.203125 -18.328125 13.609375 -18.429688 13.796875 -18.515625 L 13.796875 -15.078125 L 13.46875 -15.109375 L 13.46875 -15.5625 C 13.46875 -15.976562 13.328125 -16.335938 13.046875 -16.640625 C 12.765625 -16.941406 12.398438 -17.09375 11.953125 -17.09375 L 5.703125 -17.09375 L 5.703125 -9.46875 L 10.84375 -9.46875 C 11.25 -9.46875 11.554688 -9.585938 11.765625 -9.828125 C 11.972656 -10.066406 12.078125 -10.367188 12.078125 -10.734375 L 12.078125 -11.125 L 12.40625 -11.125 L 12.40625 -6.90625 L 12.078125 -6.90625 L 12.078125 -7.296875 C 12.078125 -7.859375 11.867188 -8.238281 11.453125 -8.4375 C 11.285156 -8.5 11.113281 -8.539062 10.9375 -8.5625 L 5.703125 -8.5625 L 5.703125 -0.9375 L 10.421875 -0.9375 C 11.347656 -0.9375 12.125 -1.09375 12.75 -1.40625 C 13.382812 -1.726562 13.863281 -2.109375 14.1875 -2.546875 C 14.519531 -2.992188 14.859375 -3.578125 15.203125 -4.296875 L 15.5 -4.296875 L 13.859375 0 L 1.65625 0 L 1.65625 -0.296875 Z M 2.078125 -0.296875 "/></g></g></g><g fill="#000000" fill-opacity="1"><g transform="translate(123.269716, 177.973435)"><g><path d="M 2.078125 -0.296875 C 2.554688 -0.296875 2.957031 -0.453125 3.28125 -0.765625 C 3.613281 -1.078125 3.789062 -1.453125 3.8125 -1.890625 L 3.8125 -16.109375 C 3.789062 -16.546875 3.601562 -16.925781 3.25 -17.25 C 2.90625 -17.570312 2.492188 -17.734375 2.015625 -17.734375 L 1.65625 -17.734375 L 1.65625 -18.03125 L 7.875 -18.03125 L 7.875 -17.734375 L 7.515625 -17.734375 C 7.035156 -17.734375 6.617188 -17.570312 6.265625 -17.25 C 5.910156 -16.925781 5.734375 -16.546875 5.734375 -16.109375 L 5.734375 -0.9375 L 10.421875 -0.9375 C 11.347656 -0.9375 12.128906 -1.09375 12.765625 -1.40625 C 13.410156 -1.726562 13.894531 -2.109375 14.21875 -2.546875 C 14.550781 -2.992188 14.878906 -3.578125 15.203125 -4.296875 L 15.5 -4.296875 L 13.859375 0 L 1.65625 0 L 1.65625 -0.296875 Z M 2.078125 -0.296875 "/></g></g></g><g fill="#000000" fill-opacity="1"><g transform="translate(139.364632, 177.973435)"><g><path d="M 7.265625 -17.09375 L 5.671875 -17.09375 L 5.671875 -1.921875 C 5.691406 -1.296875 5.972656 -0.828125 6.515625 -0.515625 C 6.773438 -0.367188 7.066406 -0.296875 7.390625 -0.296875 L 7.78125 -0.296875 L 7.8125 0 L 1.65625 0 L 1.65625 -0.296875 L 2.078125 -0.296875 C 2.535156 -0.296875 2.925781 -0.453125 3.25 -0.765625 C 3.582031 -1.078125 3.75 -1.453125 3.75 -1.890625 L 3.75 -16.171875 C 3.75 -16.609375 3.582031 -16.976562 3.25 -17.28125 C 2.925781 -17.582031 2.535156 -17.734375 2.078125 -17.734375 L 1.65625 -17.734375 L 1.65625 -18.03125 L 9.1875 -18.03125 C 11.070312 -18.03125 12.5625 -17.597656 13.65625 -16.734375 C 14.75 -15.867188 15.296875 -14.734375 15.296875 -13.328125 C 15.296875 -11.929688 14.851562 -10.757812 13.96875 -9.8125 C 13.09375 -8.875 11.972656 -8.335938 10.609375 -8.203125 C 11.242188 -7.921875 12.015625 -7.140625 12.921875 -5.859375 C 12.898438 -5.859375 13.242188 -5.414062 13.953125 -4.53125 C 14.671875 -3.65625 15.242188 -2.972656 15.671875 -2.484375 C 16.097656 -1.992188 16.453125 -1.617188 16.734375 -1.359375 C 17.472656 -0.648438 18.328125 -0.296875 19.296875 -0.296875 L 19.296875 0 L 18.359375 0 C 16.773438 0 15.535156 -0.3125 14.640625 -0.9375 C 13.953125 -1.394531 13.328125 -1.960938 12.765625 -2.640625 C 12.648438 -2.804688 12.144531 -3.515625 11.25 -4.765625 C 10.363281 -6.015625 9.890625 -6.679688 9.828125 -6.765625 C 8.742188 -8.109375 7.734375 -8.78125 6.796875 -8.78125 L 6.796875 -9.078125 C 9.140625 -9.078125 10.550781 -9.195312 11.03125 -9.4375 C 11.6875 -9.78125 12.132812 -10.140625 12.375 -10.515625 C 12.875 -11.316406 13.125 -12.195312 13.125 -13.15625 C 13.125 -14.382812 12.765625 -15.328125 12.046875 -15.984375 C 11.328125 -16.640625 10.359375 -17 9.140625 -17.0625 C 8.597656 -17.082031 7.972656 -17.09375 7.265625 -17.09375 Z M 7.265625 -17.09375 "/></g></g></g><g fill="#000000" fill-opacity="1"><g transform="translate(158.192076, 177.973435)"><g><path d="M 19.375 -17.734375 L 19.015625 -17.734375 C 18.472656 -17.734375 17.957031 -17.585938 17.46875 -17.296875 C 16.976562 -17.003906 16.570312 -16.632812 16.25 -16.1875 L 10.484375 -7.453125 L 10.484375 -1.921875 C 10.484375 -1.484375 10.65625 -1.101562 11 -0.78125 C 11.34375 -0.457031 11.753906 -0.296875 12.234375 -0.296875 L 12.59375 -0.296875 L 12.59375 0 L 6.4375 0 L 6.4375 -0.296875 L 6.796875 -0.296875 C 7.273438 -0.296875 7.679688 -0.457031 8.015625 -0.78125 C 8.359375 -1.101562 8.53125 -1.484375 8.53125 -1.921875 L 8.53125 -7.484375 L 2.96875 -16.21875 C 2.289062 -17.226562 1.367188 -17.734375 0.203125 -17.734375 L -0.15625 -17.734375 L -0.15625 -18.03125 L 6.828125 -18.03125 L 6.828125 -17.734375 L 6.453125 -17.734375 C 6.078125 -17.734375 5.800781 -17.609375 5.625 -17.359375 C 5.457031 -17.117188 5.375 -16.914062 5.375 -16.75 C 5.375 -16.582031 5.394531 -16.425781 5.4375 -16.28125 L 9.828125 -8.5 L 14.484375 -16.25 C 14.546875 -16.414062 14.578125 -16.582031 14.578125 -16.75 C 14.578125 -16.914062 14.488281 -17.117188 14.3125 -17.359375 C 14.144531 -17.609375 13.863281 -17.734375 13.46875 -17.734375 L 13.09375 -17.734375 L 13.09375 -18.03125 L 19.375 -18.03125 Z M 19.375 -17.734375 "/></g></g></g><g fill="#000000" fill-opacity="1"><g transform="translate(177.409882, 177.973435)"><g/></g></g><g fill="#000000" fill-opacity="1"><g transform="translate(184.916841, 177.973435)"><g><path d="M 8 -20.734375 C 7.269531 -20.734375 6.71875 -20.421875 6.34375 -19.796875 C 6.175781 -19.515625 6.082031 -19.195312 6.0625 -18.84375 L 6.0625 0 C 6.0625 1.6875 5.535156 3.109375 4.484375 4.265625 C 3.441406 5.429688 2.144531 6.015625 0.59375 6.015625 L 0.59375 5.734375 C 1.582031 5.398438 2.414062 4.664062 3.09375 3.53125 C 3.769531 2.394531 4.109375 1.1875 4.109375 -0.09375 L 4.109375 -18.84375 C 4.097656 -19.363281 3.90625 -19.804688 3.53125 -20.171875 C 3.15625 -20.546875 2.707031 -20.734375 2.1875 -20.734375 L 1.796875 -20.734375 L 1.796875 -21.03125 L 8.390625 -21.03125 L 8.390625 -20.734375 Z M 8 -20.734375 "/></g></g></g><g fill="#000000" fill-opacity="1"><g transform="translate(194.645853, 177.973435)"><g><path d="M 19.984375 -17.734375 L 19.53125 -17.734375 C 18.988281 -17.734375 18.578125 -17.519531 18.296875 -17.09375 C 18.179688 -16.914062 18.113281 -16.707031 18.09375 -16.46875 L 18.09375 -6.34375 C 18.09375 -4.257812 17.425781 -2.609375 16.09375 -1.390625 C 14.757812 -0.179688 12.929688 0.421875 10.609375 0.421875 C 8.285156 0.421875 6.453125 -0.175781 5.109375 -1.375 C 3.765625 -2.582031 3.09375 -4.226562 3.09375 -6.3125 L 3.09375 -16.4375 C 3.09375 -16.789062 2.953125 -17.09375 2.671875 -17.34375 C 2.390625 -17.601562 2.050781 -17.734375 1.65625 -17.734375 L 1.203125 -17.734375 L 1.203125 -18.03125 L 6.90625 -18.03125 L 6.90625 -17.734375 L 6.453125 -17.734375 C 6.054688 -17.734375 5.71875 -17.601562 5.4375 -17.34375 C 5.15625 -17.09375 5.015625 -16.789062 5.015625 -16.4375 L 5.015625 -6.671875 C 5.015625 -4.722656 5.507812 -3.1875 6.5 -2.0625 C 7.5 -0.945312 8.90625 -0.390625 10.71875 -0.390625 C 12.53125 -0.390625 13.976562 -0.921875 15.0625 -1.984375 C 16.15625 -3.046875 16.703125 -4.5 16.703125 -6.34375 L 16.703125 -16.4375 C 16.679688 -16.8125 16.535156 -17.117188 16.265625 -17.359375 C 15.992188 -17.609375 15.660156 -17.734375 15.265625 -17.734375 L 14.8125 -17.734375 L 14.8125 -18.03125 L 19.984375 -18.03125 Z M 19.984375 -17.734375 "/></g></g></g><g fill="#000000" fill-opacity="1"><g transform="translate(215.665331, 177.973435)"><g><path d="M 21.84375 -17.734375 C 21.40625 -17.734375 21.023438 -17.585938 20.703125 -17.296875 C 20.378906 -17.003906 20.207031 -16.644531 20.1875 -16.21875 L 20.1875 -3.421875 C 20.1875 -2.265625 20.257812 -1.164062 20.40625 -0.125 L 20.46875 0.421875 L 20.1875 0.421875 L 4.5625 -14.390625 L 4.5625 -1.859375 C 4.5625 -1.421875 4.722656 -1.050781 5.046875 -0.75 C 5.367188 -0.445312 5.757812 -0.296875 6.21875 -0.296875 L 6.734375 -0.296875 L 6.734375 0 L 1.046875 0 L 1.046875 -0.296875 L 1.5625 -0.296875 C 2.019531 -0.296875 2.410156 -0.445312 2.734375 -0.75 C 3.054688 -1.050781 3.21875 -1.421875 3.21875 -1.859375 L 3.21875 -14.71875 C 3.21875 -15.945312 3.144531 -17.039062 3 -18 L 2.9375 -18.484375 L 3.28125 -18.453125 L 18.875 -3.75 L 18.875 -16.21875 C 18.832031 -16.644531 18.648438 -17.003906 18.328125 -17.296875 C 18.003906 -17.585938 17.625 -17.734375 17.1875 -17.734375 L 16.671875 -17.734375 L 16.671875 -18.03125 L 22.359375 -18.03125 L 22.359375 -17.734375 Z M 21.84375 -17.734375 "/></g></g></g><g fill="#000000" fill-opacity="1"><g transform="translate(239.057007, 177.973435)"><g><path d="M 11.421875 0.421875 C 8.359375 0.398438 5.9375 -0.445312 4.15625 -2.125 C 2.382812 -3.8125 1.5 -6.113281 1.5 -9.03125 C 1.5 -11.945312 2.382812 -14.242188 4.15625 -15.921875 C 5.9375 -17.609375 8.359375 -18.453125 11.421875 -18.453125 C 12.660156 -18.453125 13.910156 -18.289062 15.171875 -17.96875 C 16.429688 -17.644531 17.523438 -17.203125 18.453125 -16.640625 L 19.109375 -12.375 L 18.84375 -12.375 C 17.976562 -15.820312 15.492188 -17.546875 11.390625 -17.546875 C 9.003906 -17.546875 7.117188 -16.785156 5.734375 -15.265625 C 4.359375 -13.742188 3.671875 -11.660156 3.671875 -9.015625 C 3.671875 -7.296875 3.976562 -5.796875 4.59375 -4.515625 C 5.21875 -3.242188 6.117188 -2.257812 7.296875 -1.5625 C 8.484375 -0.863281 9.859375 -0.515625 11.421875 -0.515625 C 12.984375 -0.515625 14.347656 -0.75 15.515625 -1.21875 C 16.691406 -1.6875 17.664062 -2.460938 18.4375 -3.546875 C 19.207031 -4.628906 19.640625 -5.972656 19.734375 -7.578125 L 20.015625 -7.578125 L 19.6875 -3.453125 C 18.90625 -2.253906 17.769531 -1.304688 16.28125 -0.609375 C 14.800781 0.078125 13.179688 0.421875 11.421875 0.421875 Z M 11.421875 0.421875 "/></g></g></g><g fill="#000000" fill-opacity="1"><g transform="translate(260.226628, 177.973435)"><g><path d="M 9.671875 -17.15625 L 9.671875 -1.890625 C 9.691406 -1.273438 9.992188 -0.816406 10.578125 -0.515625 C 10.835938 -0.367188 11.128906 -0.296875 11.453125 -0.296875 L 11.78125 -0.296875 L 11.78125 0 L 5.59375 0 L 5.59375 -0.296875 L 5.953125 -0.296875 C 6.429688 -0.296875 6.835938 -0.457031 7.171875 -0.78125 C 7.515625 -1.101562 7.695312 -1.484375 7.71875 -1.921875 L 7.71875 -17.15625 L 2.28125 -17.15625 C 1.820312 -17.15625 1.457031 -17.003906 1.1875 -16.703125 C 0.914062 -16.398438 0.78125 -16.039062 0.78125 -15.625 L 0.78125 -15.140625 L 0.453125 -15.140625 L 0.453125 -18.53125 C 0.847656 -18.375 1.410156 -18.253906 2.140625 -18.171875 C 2.878906 -18.097656 3.425781 -18.0625 3.78125 -18.0625 L 13.578125 -18.0625 C 15.023438 -18.0625 16.148438 -18.21875 16.953125 -18.53125 L 16.953125 -15.140625 L 16.609375 -15.140625 L 16.609375 -15.625 C 16.609375 -16.039062 16.46875 -16.398438 16.1875 -16.703125 C 15.914062 -17.003906 15.554688 -17.15625 15.109375 -17.15625 Z M 9.671875 -17.15625 "/></g></g></g><g fill="#000000" fill-opacity="1"><g transform="translate(277.582709, 177.973435)"><g><path d="M 2.078125 -0.296875 C 2.617188 -0.296875 3.085938 -0.457031 3.484375 -0.78125 C 3.890625 -1.101562 4.09375 -1.484375 4.09375 -1.921875 L 4.09375 -16.109375 C 4.09375 -16.546875 3.890625 -16.925781 3.484375 -17.25 C 3.085938 -17.570312 2.609375 -17.734375 2.046875 -17.734375 L 1.65625 -17.734375 L 1.65625 -18.03125 L 8.4375 -18.03125 L 8.4375 -17.734375 L 8.046875 -17.734375 C 7.503906 -17.734375 7.035156 -17.582031 6.640625 -17.28125 C 6.253906 -16.976562 6.046875 -16.609375 6.015625 -16.171875 L 6.015625 -1.890625 C 6.035156 -1.453125 6.242188 -1.078125 6.640625 -0.765625 C 7.035156 -0.453125 7.503906 -0.296875 8.046875 -0.296875 L 8.4375 -0.296875 L 8.46875 0 L 1.65625 0 L 1.65625 -0.296875 Z M 2.078125 -0.296875 "/></g></g></g><g fill="#000000" fill-opacity="1"><g transform="translate(287.672064, 177.973435)"><g><path d="M 6.546875 -17.265625 C 8.085938 -18.054688 9.785156 -18.453125 11.640625 -18.453125 C 13.492188 -18.453125 15.191406 -18.054688 16.734375 -17.265625 C 18.273438 -16.472656 19.5 -15.351562 20.40625 -13.90625 C 21.320312 -12.46875 21.78125 -10.835938 21.78125 -9.015625 C 21.78125 -7.191406 21.320312 -5.554688 20.40625 -4.109375 C 19.5 -2.671875 18.273438 -1.554688 16.734375 -0.765625 C 15.191406 0.0234375 13.609375 0.421875 11.984375 0.421875 C 10.367188 0.421875 8.9375 0.191406 7.6875 -0.265625 C 6.445312 -0.734375 5.367188 -1.375 4.453125 -2.1875 C 3.546875 -3.007812 2.828125 -4.007812 2.296875 -5.1875 C 1.765625 -6.375 1.5 -7.765625 1.5 -9.359375 C 1.5 -10.953125 1.953125 -12.46875 2.859375 -13.90625 C 3.773438 -15.351562 5.003906 -16.472656 6.546875 -17.265625 Z M 5.984375 -2.875 C 7.503906 -1.28125 9.382812 -0.484375 11.625 -0.484375 C 13.875 -0.484375 15.757812 -1.28125 17.28125 -2.875 C 18.800781 -4.46875 19.5625 -6.515625 19.5625 -9.015625 C 19.5625 -11.515625 18.800781 -13.5625 17.28125 -15.15625 C 15.757812 -16.75 13.875 -17.546875 11.625 -17.546875 C 9.382812 -17.546875 7.503906 -16.75 5.984375 -15.15625 C 4.472656 -13.5625 3.71875 -11.515625 3.71875 -9.015625 C 3.71875 -6.515625 4.472656 -4.46875 5.984375 -2.875 Z M 5.984375 -2.875 "/></g></g></g><g fill="#000000" fill-opacity="1"><g transform="translate(310.91361, 177.973435)"><g><path d="M 21.84375 -17.734375 C 21.40625 -17.734375 21.023438 -17.585938 20.703125 -17.296875 C 20.378906 -17.003906 20.207031 -16.644531 20.1875 -16.21875 L 20.1875 -3.421875 C 20.1875 -2.265625 20.257812 -1.164062 20.40625 -0.125 L 20.46875 0.421875 L 20.1875 0.421875 L 4.5625 -14.390625 L 4.5625 -1.859375 C 4.5625 -1.421875 4.722656 -1.050781 5.046875 -0.75 C 5.367188 -0.445312 5.757812 -0.296875 6.21875 -0.296875 L 6.734375 -0.296875 L 6.734375 0 L 1.046875 0 L 1.046875 -0.296875 L 1.5625 -0.296875 C 2.019531 -0.296875 2.410156 -0.445312 2.734375 -0.75 C 3.054688 -1.050781 3.21875 -1.421875 3.21875 -1.859375 L 3.21875 -14.71875 C 3.21875 -15.945312 3.144531 -17.039062 3 -18 L 2.9375 -18.484375 L 3.28125 -18.453125 L 18.875 -3.75 L 18.875 -16.21875 C 18.832031 -16.644531 18.648438 -17.003906 18.328125 -17.296875 C 18.003906 -17.585938 17.625 -17.734375 17.1875 -17.734375 L 16.671875 -17.734375 L 16.671875 -18.03125 L 22.359375 -18.03125 L 22.359375 -17.734375 Z M 21.84375 -17.734375 "/></g></g></g><g clip-path="url(#9e7565012b)"><path fill="#f7591f" d="M 191.375 144.671875 L 194.941406 149.117188 L 190.496094 145.550781 L 189.820312 156.808594 L 189.144531 145.550781 L 184.699219 149.117188 L 188.265625 144.671875 L 177.007812 143.996094 L 188.265625 143.320312 L 184.699219 138.875 L 189.144531 142.441406 L 189.820312 131.179688 L 190.496094 142.441406 L 194.941406 138.875 L 191.375 143.320312 L 202.632812 143.996094 Z M 191.375 144.671875 " fill-opacity="1" fill-rule="nonzero"/></g><g clip-path="url(#1e3ff4cf38)"><path fill="#000000" d="M 49.445312 166.75 L 51.632812 169.476562 L 48.90625 167.289062 L 48.492188 174.195312 L 48.078125 167.289062 L 45.351562 169.476562 L 47.539062 166.75 L 40.636719 166.335938 L 47.539062 165.921875 L 45.351562 163.195312 L 48.078125 165.382812 L 48.492188 158.480469 L 48.90625 165.382812 L 51.632812 163.195312 L 49.445312 165.921875 L 56.351562 166.335938 Z M 49.445312 166.75 " fill-opacity="1" fill-rule="nonzero"/></g></svg>