<svg xmlns="http://www.w3.org/2000/svg" xmlns:xlink="http://www.w3.org/1999/xlink" width="500" zoomAndPan="magnify" viewBox="0 0 375 374.999991" height="500" preserveAspectRatio="xMidYMid meet" version="1.0"><defs><g/><clipPath id="67067743fc"><path d="M 186.855469 37.5 L 224.355469 37.5 L 224.355469 75 L 186.855469 75 Z M 186.855469 37.5 " clip-rule="nonzero"/></clipPath><clipPath id="77b30d4d9b"><path d="M 136.945312 156.328125 L 163.945312 156.328125 L 163.945312 183.328125 L 136.945312 183.328125 Z M 136.945312 156.328125 " clip-rule="nonzero"/></clipPath></defs><g fill="#000000" fill-opacity="1"><g transform="translate(172.857255, 212.97168)"><g><path d="M -15.203125 25.96875 C -11.734375 27.113281 -8.300781 27.6875 -4.90625 27.6875 C -1.507812 27.6875 2.046875 26.984375 5.765625 25.578125 C 9.484375 24.171875 12.878906 21.957031 15.953125 18.9375 C 19.035156 15.925781 21.566406 11.40625 23.546875 5.375 C 25.535156 -0.644531 26.53125 -7.757812 26.53125 -15.96875 L 26.53125 -120.578125 C 26.40625 -123.910156 25.15625 -126.765625 22.78125 -129.140625 C 20.40625 -131.515625 17.550781 -132.703125 14.21875 -132.703125 L 11.71875 -132.703125 L 11.71875 -134.625 L 53.84375 -134.625 L 53.84375 -132.703125 L 51.34375 -132.703125 C 48.007812 -132.703125 45.15625 -131.546875 42.78125 -129.234375 C 40.414062 -126.921875 39.164062 -124.035156 39.03125 -120.578125 L 39.03125 -15.390625 C 39.03125 -6.671875 37.679688 0.957031 34.984375 7.5 C 32.296875 14.039062 28.898438 18.976562 24.796875 22.3125 C 17.109375 28.332031 8.582031 31.34375 -0.78125 31.34375 C -6.289062 31.34375 -11.351562 30.253906 -15.96875 28.078125 Z M -15.203125 25.96875 "/></g></g></g><g fill="#f7591f" fill-opacity="1"><g transform="translate(144.22482, 227.843613)"><g><path d="M -14.03125 23.953125 C -10.832031 25.023438 -7.664062 25.5625 -4.53125 25.5625 C -1.394531 25.5625 1.882812 24.910156 5.3125 23.609375 C 8.75 22.304688 11.882812 20.265625 14.71875 17.484375 C 17.5625 14.703125 19.898438 10.53125 21.734375 4.96875 C 23.566406 -0.59375 24.484375 -7.160156 24.484375 -14.734375 L 24.484375 -111.28125 C 24.367188 -114.351562 23.21875 -116.984375 21.03125 -119.171875 C 18.84375 -121.367188 16.207031 -122.46875 13.125 -122.46875 L 10.828125 -122.46875 L 10.828125 -124.234375 L 49.6875 -124.234375 L 49.6875 -122.46875 L 47.375 -122.46875 C 44.300781 -122.46875 41.671875 -121.398438 39.484375 -119.265625 C 37.296875 -117.140625 36.144531 -114.476562 36.03125 -111.28125 L 36.03125 -14.203125 C 36.03125 -6.148438 34.785156 0.890625 32.296875 6.921875 C 29.804688 12.953125 26.671875 17.507812 22.890625 20.59375 C 15.785156 26.15625 7.914062 28.9375 -0.71875 28.9375 C -5.800781 28.9375 -10.472656 27.925781 -14.734375 25.90625 Z M -14.03125 23.953125 "/></g></g></g><g clip-path="url(#67067743fc)"><path fill="#f7591f" d="M 207.710938 57.078125 L 212.886719 63.53125 L 206.433594 58.355469 L 205.453125 74.695312 L 204.472656 58.355469 L 198.019531 63.53125 L 203.195312 57.078125 L 186.855469 56.097656 L 203.195312 55.117188 L 198.019531 48.664062 L 204.472656 53.839844 L 205.453125 37.5 L 206.433594 53.839844 L 212.886719 48.664062 L 207.710938 55.117188 L 224.050781 56.097656 Z M 207.710938 57.078125 " fill-opacity="1" fill-rule="nonzero"/></g><g clip-path="url(#77b30d4d9b)"><path fill="#000000" d="M 152.023438 170.484375 L 155.765625 175.148438 L 151.101562 171.40625 L 150.390625 183.222656 L 149.683594 171.40625 L 145.015625 175.148438 L 148.761719 170.484375 L 136.945312 169.773438 L 148.761719 169.066406 L 145.015625 164.398438 L 149.683594 168.140625 L 150.390625 156.328125 L 151.101562 168.140625 L 155.765625 164.398438 L 152.023438 169.066406 L 163.839844 169.773438 Z M 152.023438 170.484375 " fill-opacity="1" fill-rule="nonzero"/></g></svg>