<svg xmlns="http://www.w3.org/2000/svg" xmlns:xlink="http://www.w3.org/1999/xlink" width="500" zoomAndPan="magnify" viewBox="0 0 375 374.999991" height="500" preserveAspectRatio="xMidYMid meet" version="1.0"><defs><g/><clipPath id="a10867380f"><path d="M 177.023438 131.355469 L 202.523438 131.355469 L 202.523438 156.855469 L 177.023438 156.855469 Z M 177.023438 131.355469 " clip-rule="nonzero"/></clipPath><clipPath id="62060cc7b7"><path d="M 41.074219 158.570312 L 56.824219 158.570312 L 56.824219 174.320312 L 41.074219 174.320312 Z M 41.074219 158.570312 " clip-rule="nonzero"/></clipPath></defs><g fill="#f7591f" fill-opacity="1"><g transform="translate(54.146457, 178.002611)"><g><path d="M 7.96875 -20.671875 C 7.25 -20.671875 6.695312 -20.359375 6.3125 -19.734375 C 6.15625 -19.453125 6.066406 -19.132812 6.046875 -18.78125 L 6.046875 0 C 6.046875 1.675781 5.519531 3.09375 4.46875 4.25 C 3.425781 5.40625 2.132812 5.984375 0.59375 5.984375 L 0.59375 5.71875 C 1.570312 5.382812 2.398438 4.648438 3.078125 3.515625 C 3.765625 2.390625 4.109375 1.1875 4.109375 -0.09375 L 4.109375 -18.78125 C 4.085938 -19.300781 3.890625 -19.742188 3.515625 -20.109375 C 3.148438 -20.484375 2.707031 -20.671875 2.1875 -20.671875 L 1.796875 -20.671875 L 1.796875 -20.96875 L 8.359375 -20.96875 L 8.359375 -20.671875 Z M 7.96875 -20.671875 "/></g></g></g><g fill="#ffffff" fill-opacity="1"><g transform="translate(63.8508, 178.002611)"><g><path d="M 2.0625 -0.296875 C 2.539062 -0.296875 2.945312 -0.453125 3.28125 -0.765625 C 3.613281 -1.078125 3.785156 -1.453125 3.796875 -1.890625 L 3.796875 -16.109375 C 3.796875 -16.554688 3.625 -16.925781 3.28125 -17.21875 C 2.945312 -17.519531 2.539062 -17.671875 2.0625 -17.671875 L 1.640625 -17.671875 L 1.640625 -17.96875 L 10.390625 -17.96875 C 11.210938 -17.96875 11.929688 -18.023438 12.546875 -18.140625 C 13.171875 -18.265625 13.570312 -18.367188 13.75 -18.453125 L 13.75 -15.03125 L 13.421875 -15.0625 L 13.421875 -15.515625 C 13.421875 -15.929688 13.28125 -16.289062 13 -16.59375 C 12.71875 -16.894531 12.359375 -17.046875 11.921875 -17.046875 L 5.6875 -17.046875 L 5.6875 -9.4375 L 10.8125 -9.4375 C 11.207031 -9.4375 11.507812 -9.554688 11.71875 -9.796875 C 11.9375 -10.035156 12.046875 -10.332031 12.046875 -10.6875 L 12.046875 -11.078125 L 12.375 -11.078125 L 12.375 -6.890625 L 12.046875 -6.890625 L 12.046875 -7.28125 C 12.046875 -7.84375 11.832031 -8.222656 11.40625 -8.421875 C 11.25 -8.472656 11.082031 -8.507812 10.90625 -8.53125 L 5.6875 -8.53125 L 5.6875 -0.921875 L 10.390625 -0.921875 C 11.304688 -0.921875 12.078125 -1.082031 12.703125 -1.40625 C 13.335938 -1.726562 13.816406 -2.109375 14.140625 -2.546875 C 14.472656 -2.984375 14.8125 -3.5625 15.15625 -4.28125 L 15.453125 -4.28125 L 13.8125 0 L 1.640625 0 L 1.640625 -0.296875 Z M 2.0625 -0.296875 "/></g></g></g><g fill="#ffffff" fill-opacity="1"><g transform="translate(80.195697, 178.002611)"><g><path d="M 27.078125 -17.671875 L 26.875 -17.671875 C 25.675781 -17.671875 24.851562 -17.082031 24.40625 -15.90625 L 20.0625 -2.96875 C 19.625 -1.707031 19.394531 -0.597656 19.375 0.359375 L 19.078125 0.359375 L 13.515625 -13.890625 L 9.609375 -2.96875 C 9.210938 -1.726562 8.992188 -0.617188 8.953125 0.359375 L 8.6875 0.359375 L 2.390625 -16.03125 C 1.929688 -17.125 1.132812 -17.671875 0 -17.671875 L -0.234375 -17.671875 L -0.234375 -17.96875 L 5.9375 -17.96875 L 5.9375 -17.671875 L 5.6875 -17.671875 C 5.332031 -17.671875 5.054688 -17.5625 4.859375 -17.34375 C 4.671875 -17.125 4.578125 -16.90625 4.578125 -16.6875 C 4.578125 -16.46875 4.609375 -16.257812 4.671875 -16.0625 L 8.65625 -3.859375 L 13.71875 -18.453125 L 14.015625 -18.421875 L 19.375 -4.765625 L 22.734375 -15.875 C 22.835938 -16.15625 22.890625 -16.40625 22.890625 -16.625 C 22.890625 -16.84375 22.804688 -17.070312 22.640625 -17.3125 C 22.484375 -17.550781 22.210938 -17.671875 21.828125 -17.671875 L 21.59375 -17.671875 L 21.59375 -17.96875 L 27.078125 -17.96875 Z M 27.078125 -17.671875 "/></g></g></g><g fill="#ffffff" fill-opacity="1"><g transform="translate(107.107906, 178.002611)"><g><path d="M 2.0625 -0.296875 C 2.539062 -0.296875 2.945312 -0.453125 3.28125 -0.765625 C 3.613281 -1.078125 3.785156 -1.453125 3.796875 -1.890625 L 3.796875 -16.109375 C 3.796875 -16.554688 3.625 -16.925781 3.28125 -17.21875 C 2.945312 -17.519531 2.539062 -17.671875 2.0625 -17.671875 L 1.640625 -17.671875 L 1.640625 -17.96875 L 10.390625 -17.96875 C 11.210938 -17.96875 11.929688 -18.023438 12.546875 -18.140625 C 13.171875 -18.265625 13.570312 -18.367188 13.75 -18.453125 L 13.75 -15.03125 L 13.421875 -15.0625 L 13.421875 -15.515625 C 13.421875 -15.929688 13.28125 -16.289062 13 -16.59375 C 12.71875 -16.894531 12.359375 -17.046875 11.921875 -17.046875 L 5.6875 -17.046875 L 5.6875 -9.4375 L 10.8125 -9.4375 C 11.207031 -9.4375 11.507812 -9.554688 11.71875 -9.796875 C 11.9375 -10.035156 12.046875 -10.332031 12.046875 -10.6875 L 12.046875 -11.078125 L 12.375 -11.078125 L 12.375 -6.890625 L 12.046875 -6.890625 L 12.046875 -7.28125 C 12.046875 -7.84375 11.832031 -8.222656 11.40625 -8.421875 C 11.25 -8.472656 11.082031 -8.507812 10.90625 -8.53125 L 5.6875 -8.53125 L 5.6875 -0.921875 L 10.390625 -0.921875 C 11.304688 -0.921875 12.078125 -1.082031 12.703125 -1.40625 C 13.335938 -1.726562 13.816406 -2.109375 14.140625 -2.546875 C 14.472656 -2.984375 14.8125 -3.5625 15.15625 -4.28125 L 15.453125 -4.28125 L 13.8125 0 L 1.640625 0 L 1.640625 -0.296875 Z M 2.0625 -0.296875 "/></g></g></g><g fill="#ffffff" fill-opacity="1"><g transform="translate(123.452803, 178.002611)"><g><path d="M 2.0625 -0.296875 C 2.539062 -0.296875 2.945312 -0.453125 3.28125 -0.765625 C 3.613281 -1.078125 3.785156 -1.453125 3.796875 -1.890625 L 3.796875 -16.0625 C 3.785156 -16.5 3.601562 -16.875 3.25 -17.1875 C 2.894531 -17.507812 2.476562 -17.671875 2 -17.671875 L 1.640625 -17.671875 L 1.640625 -17.96875 L 7.84375 -17.96875 L 7.84375 -17.671875 L 7.484375 -17.671875 C 7.003906 -17.671875 6.585938 -17.507812 6.234375 -17.1875 C 5.890625 -16.875 5.71875 -16.5 5.71875 -16.0625 L 5.71875 -0.921875 L 10.390625 -0.921875 C 11.304688 -0.921875 12.082031 -1.082031 12.71875 -1.40625 C 13.363281 -1.726562 13.847656 -2.109375 14.171875 -2.546875 C 14.503906 -2.984375 14.832031 -3.5625 15.15625 -4.28125 L 15.453125 -4.28125 L 13.8125 0 L 1.640625 0 L 1.640625 -0.296875 Z M 2.0625 -0.296875 "/></g></g></g><g fill="#ffffff" fill-opacity="1"><g transform="translate(139.498347, 178.002611)"><g><path d="M 7.25 -17.046875 L 5.65625 -17.046875 L 5.65625 -1.921875 C 5.675781 -1.296875 5.957031 -0.828125 6.5 -0.515625 C 6.757812 -0.367188 7.050781 -0.296875 7.375 -0.296875 L 7.765625 -0.296875 L 7.78125 0 L 1.640625 0 L 1.640625 -0.296875 L 2.0625 -0.296875 C 2.519531 -0.296875 2.914062 -0.453125 3.25 -0.765625 C 3.582031 -1.078125 3.75 -1.453125 3.75 -1.890625 L 3.75 -16.109375 C 3.75 -16.554688 3.582031 -16.925781 3.25 -17.21875 C 2.914062 -17.519531 2.519531 -17.671875 2.0625 -17.671875 L 1.640625 -17.671875 L 1.640625 -17.96875 L 9.171875 -17.96875 C 11.046875 -17.96875 12.523438 -17.535156 13.609375 -16.671875 C 14.703125 -15.816406 15.25 -14.691406 15.25 -13.296875 C 15.25 -11.898438 14.804688 -10.734375 13.921875 -9.796875 C 13.046875 -8.859375 11.929688 -8.316406 10.578125 -8.171875 C 11.210938 -7.898438 11.976562 -7.125 12.875 -5.84375 C 12.851562 -5.84375 13.195312 -5.398438 13.90625 -4.515625 C 14.625 -3.640625 15.195312 -2.957031 15.625 -2.46875 C 16.050781 -1.976562 16.40625 -1.601562 16.6875 -1.34375 C 17.425781 -0.644531 18.273438 -0.296875 19.234375 -0.296875 L 19.234375 0 L 18.296875 0 C 16.722656 0 15.488281 -0.304688 14.59375 -0.921875 C 13.90625 -1.390625 13.285156 -1.960938 12.734375 -2.640625 C 12.609375 -2.796875 12.101562 -3.5 11.21875 -4.75 C 10.332031 -6 9.859375 -6.660156 9.796875 -6.734375 C 8.710938 -8.078125 7.703125 -8.75 6.765625 -8.75 L 6.765625 -9.046875 C 9.109375 -9.046875 10.519531 -9.164062 11 -9.40625 C 11.65625 -9.75 12.101562 -10.109375 12.34375 -10.484375 C 12.84375 -11.285156 13.09375 -12.164062 13.09375 -13.125 C 13.09375 -14.34375 12.734375 -15.28125 12.015625 -15.9375 C 11.296875 -16.59375 10.328125 -16.953125 9.109375 -17.015625 C 8.566406 -17.035156 7.945312 -17.046875 7.25 -17.046875 Z M 7.25 -17.046875 "/></g></g></g><g fill="#ffffff" fill-opacity="1"><g transform="translate(158.268036, 178.002611)"><g><path d="M 19.3125 -17.671875 L 18.953125 -17.671875 C 18.421875 -17.671875 17.910156 -17.523438 17.421875 -17.234375 C 16.929688 -16.941406 16.523438 -16.578125 16.203125 -16.140625 L 10.453125 -7.421875 L 10.453125 -1.921875 C 10.453125 -1.484375 10.617188 -1.101562 10.953125 -0.78125 C 11.296875 -0.457031 11.707031 -0.296875 12.1875 -0.296875 L 12.546875 -0.296875 L 12.546875 0 L 6.40625 0 L 6.40625 -0.296875 L 6.765625 -0.296875 C 7.242188 -0.296875 7.648438 -0.457031 7.984375 -0.78125 C 8.328125 -1.101562 8.5 -1.484375 8.5 -1.921875 L 8.5 -7.453125 L 2.96875 -16.171875 C 2.289062 -17.171875 1.367188 -17.671875 0.203125 -17.671875 L -0.15625 -17.671875 L -0.15625 -17.96875 L 6.796875 -17.96875 L 6.796875 -17.671875 L 6.4375 -17.671875 C 6.0625 -17.671875 5.785156 -17.550781 5.609375 -17.3125 C 5.441406 -17.070312 5.359375 -16.863281 5.359375 -16.6875 C 5.359375 -16.519531 5.378906 -16.367188 5.421875 -16.234375 L 9.796875 -8.484375 L 14.4375 -16.203125 C 14.5 -16.359375 14.53125 -16.519531 14.53125 -16.6875 C 14.53125 -16.863281 14.441406 -17.070312 14.265625 -17.3125 C 14.097656 -17.550781 13.816406 -17.671875 13.421875 -17.671875 L 13.0625 -17.671875 L 13.0625 -17.96875 L 19.3125 -17.96875 Z M 19.3125 -17.671875 "/></g></g></g><g fill="#ffffff" fill-opacity="1"><g transform="translate(177.426891, 178.002611)"><g/></g></g><g fill="#ffffff" fill-opacity="1"><g transform="translate(184.910821, 178.002611)"><g><path d="M 7.96875 -20.671875 C 7.25 -20.671875 6.695312 -20.359375 6.3125 -19.734375 C 6.15625 -19.453125 6.066406 -19.132812 6.046875 -18.78125 L 6.046875 0 C 6.046875 1.675781 5.519531 3.09375 4.46875 4.25 C 3.425781 5.40625 2.132812 5.984375 0.59375 5.984375 L 0.59375 5.71875 C 1.570312 5.382812 2.398438 4.648438 3.078125 3.515625 C 3.765625 2.390625 4.109375 1.1875 4.109375 -0.09375 L 4.109375 -18.78125 C 4.085938 -19.300781 3.890625 -19.742188 3.515625 -20.109375 C 3.148438 -20.484375 2.707031 -20.671875 2.1875 -20.671875 L 1.796875 -20.671875 L 1.796875 -20.96875 L 8.359375 -20.96875 L 8.359375 -20.671875 Z M 7.96875 -20.671875 "/></g></g></g><g fill="#ffffff" fill-opacity="1"><g transform="translate(194.60999, 178.002611)"><g><path d="M 19.921875 -17.671875 L 19.46875 -17.671875 C 18.925781 -17.671875 18.515625 -17.460938 18.234375 -17.046875 C 18.117188 -16.867188 18.050781 -16.660156 18.03125 -16.421875 L 18.03125 -6.3125 C 18.03125 -4.238281 17.363281 -2.597656 16.03125 -1.390625 C 14.707031 -0.179688 12.882812 0.421875 10.5625 0.421875 C 8.25 0.421875 6.421875 -0.175781 5.078125 -1.375 C 3.742188 -2.570312 3.078125 -4.210938 3.078125 -6.296875 L 3.078125 -16.390625 C 3.078125 -16.742188 2.9375 -17.046875 2.65625 -17.296875 C 2.382812 -17.546875 2.046875 -17.671875 1.640625 -17.671875 L 1.203125 -17.671875 L 1.203125 -17.96875 L 6.890625 -17.96875 L 6.890625 -17.671875 L 6.4375 -17.671875 C 6.039062 -17.671875 5.703125 -17.546875 5.421875 -17.296875 C 5.140625 -17.046875 5 -16.742188 5 -16.390625 L 5 -6.65625 C 5 -4.71875 5.492188 -3.1875 6.484375 -2.0625 C 7.472656 -0.945312 8.867188 -0.390625 10.671875 -0.390625 C 12.484375 -0.390625 13.929688 -0.914062 15.015625 -1.96875 C 16.109375 -3.03125 16.65625 -4.476562 16.65625 -6.3125 L 16.65625 -16.390625 C 16.632812 -16.765625 16.488281 -17.070312 16.21875 -17.3125 C 15.945312 -17.550781 15.613281 -17.671875 15.21875 -17.671875 L 14.765625 -17.671875 L 14.765625 -17.96875 L 19.921875 -17.96875 Z M 19.921875 -17.671875 "/></g></g></g><g fill="#ffffff" fill-opacity="1"><g transform="translate(215.564989, 178.002611)"><g><path d="M 21.78125 -17.671875 C 21.332031 -17.671875 20.945312 -17.523438 20.625 -17.234375 C 20.3125 -16.941406 20.144531 -16.585938 20.125 -16.171875 L 20.125 -3.421875 C 20.125 -2.253906 20.195312 -1.15625 20.34375 -0.125 L 20.390625 0.421875 L 20.125 0.421875 L 4.546875 -14.34375 L 4.546875 -1.859375 C 4.546875 -1.421875 4.707031 -1.050781 5.03125 -0.75 C 5.351562 -0.445312 5.742188 -0.296875 6.203125 -0.296875 L 6.703125 -0.296875 L 6.703125 0 L 1.046875 0 L 1.046875 -0.296875 L 1.5625 -0.296875 C 2.019531 -0.296875 2.40625 -0.445312 2.71875 -0.75 C 3.039062 -1.050781 3.203125 -1.421875 3.203125 -1.859375 L 3.203125 -14.671875 C 3.203125 -15.890625 3.132812 -16.976562 3 -17.9375 L 2.9375 -18.421875 L 3.265625 -18.390625 L 18.8125 -3.75 L 18.8125 -16.171875 C 18.769531 -16.585938 18.585938 -16.941406 18.265625 -17.234375 C 17.953125 -17.523438 17.578125 -17.671875 17.140625 -17.671875 L 16.625 -17.671875 L 16.625 -17.96875 L 22.28125 -17.96875 L 22.28125 -17.671875 Z M 21.78125 -17.671875 "/></g></g></g><g fill="#ffffff" fill-opacity="1"><g transform="translate(238.88491, 178.002611)"><g><path d="M 11.375 0.421875 C 8.320312 0.398438 5.910156 -0.445312 4.140625 -2.125 C 2.378906 -3.800781 1.5 -6.09375 1.5 -9 C 1.5 -11.90625 2.378906 -14.195312 4.140625 -15.875 C 5.910156 -17.550781 8.320312 -18.390625 11.375 -18.390625 C 12.613281 -18.390625 13.863281 -18.226562 15.125 -17.90625 C 16.382812 -17.59375 17.472656 -17.15625 18.390625 -16.59375 L 19.046875 -12.34375 L 18.78125 -12.34375 C 17.925781 -15.78125 15.453125 -17.5 11.359375 -17.5 C 8.972656 -17.5 7.09375 -16.738281 5.71875 -15.21875 C 4.34375 -13.695312 3.65625 -11.617188 3.65625 -8.984375 C 3.65625 -7.265625 3.960938 -5.769531 4.578125 -4.5 C 5.203125 -3.238281 6.101562 -2.257812 7.28125 -1.5625 C 8.457031 -0.863281 9.820312 -0.515625 11.375 -0.515625 C 12.9375 -0.515625 14.300781 -0.75 15.46875 -1.21875 C 16.632812 -1.6875 17.601562 -2.457031 18.375 -3.53125 C 19.144531 -4.613281 19.578125 -5.953125 19.671875 -7.546875 L 19.953125 -7.546875 L 19.625 -3.4375 C 18.84375 -2.238281 17.710938 -1.296875 16.234375 -0.609375 C 14.753906 0.078125 13.132812 0.421875 11.375 0.421875 Z M 11.375 0.421875 "/></g></g></g><g fill="#ffffff" fill-opacity="1"><g transform="translate(259.989592, 178.002611)"><g><path d="M 9.640625 -17.109375 L 9.640625 -1.890625 C 9.660156 -1.265625 9.960938 -0.804688 10.546875 -0.515625 C 10.804688 -0.367188 11.09375 -0.296875 11.40625 -0.296875 L 11.734375 -0.296875 L 11.734375 0 L 5.578125 0 L 5.578125 -0.296875 L 5.9375 -0.296875 C 6.414062 -0.296875 6.820312 -0.457031 7.15625 -0.78125 C 7.5 -1.101562 7.679688 -1.484375 7.703125 -1.921875 L 7.703125 -17.109375 L 2.28125 -17.109375 C 1.820312 -17.109375 1.457031 -16.957031 1.1875 -16.65625 C 0.914062 -16.351562 0.78125 -15.992188 0.78125 -15.578125 L 0.78125 -15.09375 L 0.453125 -15.09375 L 0.453125 -18.484375 C 0.847656 -18.316406 1.410156 -18.191406 2.140625 -18.109375 C 2.867188 -18.035156 3.414062 -18 3.78125 -18 L 13.53125 -18 C 14.976562 -18 16.097656 -18.160156 16.890625 -18.484375 L 16.890625 -15.09375 L 16.5625 -15.09375 L 16.5625 -15.578125 C 16.5625 -15.992188 16.421875 -16.351562 16.140625 -16.65625 C 15.859375 -16.957031 15.5 -17.109375 15.0625 -17.109375 Z M 9.640625 -17.109375 "/></g></g></g><g fill="#ffffff" fill-opacity="1"><g transform="translate(277.292432, 178.002611)"><g><path d="M 2.0625 -0.296875 C 2.601562 -0.296875 3.070312 -0.457031 3.46875 -0.78125 C 3.875 -1.101562 4.078125 -1.484375 4.078125 -1.921875 L 4.078125 -16.0625 C 4.078125 -16.5 3.875 -16.875 3.46875 -17.1875 C 3.070312 -17.507812 2.59375 -17.671875 2.03125 -17.671875 L 1.640625 -17.671875 L 1.640625 -17.96875 L 8.421875 -17.96875 L 8.421875 -17.671875 L 8.03125 -17.671875 C 7.488281 -17.671875 7.019531 -17.519531 6.625 -17.21875 C 6.238281 -16.925781 6.023438 -16.554688 5.984375 -16.109375 L 5.984375 -1.890625 C 6.003906 -1.453125 6.210938 -1.078125 6.609375 -0.765625 C 7.015625 -0.453125 7.488281 -0.296875 8.03125 -0.296875 L 8.421875 -0.296875 L 8.453125 0 L 1.640625 0 L 1.640625 -0.296875 Z M 2.0625 -0.296875 "/></g></g></g><g fill="#ffffff" fill-opacity="1"><g transform="translate(287.350837, 178.002611)"><g><path d="M 6.53125 -17.203125 C 8.070312 -17.992188 9.765625 -18.390625 11.609375 -18.390625 C 13.453125 -18.390625 15.140625 -17.992188 16.671875 -17.203125 C 18.210938 -16.421875 19.4375 -15.3125 20.34375 -13.875 C 21.257812 -12.4375 21.71875 -10.804688 21.71875 -8.984375 C 21.71875 -7.171875 21.257812 -5.546875 20.34375 -4.109375 C 19.4375 -2.671875 18.210938 -1.554688 16.671875 -0.765625 C 15.140625 0.0234375 13.566406 0.421875 11.953125 0.421875 C 10.335938 0.421875 8.910156 0.191406 7.671875 -0.265625 C 6.429688 -0.722656 5.351562 -1.363281 4.4375 -2.1875 C 3.53125 -3.007812 2.8125 -4.007812 2.28125 -5.1875 C 1.757812 -6.363281 1.5 -7.742188 1.5 -9.328125 C 1.5 -10.921875 1.953125 -12.4375 2.859375 -13.875 C 3.765625 -15.3125 4.988281 -16.421875 6.53125 -17.203125 Z M 5.96875 -2.859375 C 7.476562 -1.273438 9.351562 -0.484375 11.59375 -0.484375 C 13.832031 -0.484375 15.707031 -1.273438 17.21875 -2.859375 C 18.738281 -4.441406 19.5 -6.484375 19.5 -8.984375 C 19.5 -11.484375 18.738281 -13.523438 17.21875 -15.109375 C 15.707031 -16.703125 13.832031 -17.5 11.59375 -17.5 C 9.351562 -17.5 7.476562 -16.703125 5.96875 -15.109375 C 4.46875 -13.523438 3.71875 -11.484375 3.71875 -8.984375 C 3.71875 -6.484375 4.46875 -4.441406 5.96875 -2.859375 Z M 5.96875 -2.859375 "/></g></g></g><g fill="#ffffff" fill-opacity="1"><g transform="translate(310.521088, 178.002611)"><g><path d="M 21.78125 -17.671875 C 21.332031 -17.671875 20.945312 -17.523438 20.625 -17.234375 C 20.3125 -16.941406 20.144531 -16.585938 20.125 -16.171875 L 20.125 -3.421875 C 20.125 -2.253906 20.195312 -1.15625 20.34375 -0.125 L 20.390625 0.421875 L 20.125 0.421875 L 4.546875 -14.34375 L 4.546875 -1.859375 C 4.546875 -1.421875 4.707031 -1.050781 5.03125 -0.75 C 5.351562 -0.445312 5.742188 -0.296875 6.203125 -0.296875 L 6.703125 -0.296875 L 6.703125 0 L 1.046875 0 L 1.046875 -0.296875 L 1.5625 -0.296875 C 2.019531 -0.296875 2.40625 -0.445312 2.71875 -0.75 C 3.039062 -1.050781 3.203125 -1.421875 3.203125 -1.859375 L 3.203125 -14.671875 C 3.203125 -15.890625 3.132812 -16.976562 3 -17.9375 L 2.9375 -18.421875 L 3.265625 -18.390625 L 18.8125 -3.75 L 18.8125 -16.171875 C 18.769531 -16.585938 18.585938 -16.941406 18.265625 -17.234375 C 17.953125 -17.523438 17.578125 -17.671875 17.140625 -17.671875 L 16.625 -17.671875 L 16.625 -17.96875 L 22.28125 -17.96875 L 22.28125 -17.671875 Z M 21.78125 -17.671875 "/></g></g></g><g clip-path="url(#a10867380f)"><path fill="#f7591f" d="M 191.347656 144.800781 L 194.902344 149.234375 L 190.46875 145.675781 L 189.796875 156.898438 L 189.125 145.675781 L 184.691406 149.234375 L 188.246094 144.800781 L 177.023438 144.128906 L 188.246094 143.453125 L 184.691406 139.019531 L 189.125 142.578125 L 189.796875 131.355469 L 190.46875 142.578125 L 194.902344 139.019531 L 191.347656 143.453125 L 202.570312 144.128906 Z M 191.347656 144.800781 " fill-opacity="1" fill-rule="nonzero"/></g><g clip-path="url(#62060cc7b7)"><path fill="#ffffff" d="M 49.851562 166.808594 L 52.03125 169.527344 L 49.3125 167.347656 L 48.902344 174.222656 L 48.488281 167.347656 L 45.773438 169.527344 L 47.949219 166.808594 L 41.074219 166.394531 L 47.949219 165.984375 L 45.773438 163.265625 L 48.488281 165.445312 L 48.902344 158.570312 L 49.3125 165.445312 L 52.03125 163.265625 L 49.851562 165.984375 L 56.730469 166.394531 Z M 49.851562 166.808594 " fill-opacity="1" fill-rule="nonzero"/></g></svg>