<svg xmlns="http://www.w3.org/2000/svg" xmlns:xlink="http://www.w3.org/1999/xlink" width="500" zoomAndPan="magnify" viewBox="0 0 375 374.999991" height="500" preserveAspectRatio="xMidYMid meet" version="1.0"><defs><g/><clipPath id="7e17f37b60"><path d="M 178.773438 140.726562 L 199.773438 140.726562 L 199.773438 161.726562 L 178.773438 161.726562 Z M 178.773438 140.726562 " clip-rule="nonzero"/></clipPath><clipPath id="0195060db2"><path d="M 65.519531 163.398438 L 78.269531 163.398438 L 78.269531 176.148438 L 65.519531 176.148438 Z M 65.519531 163.398438 " clip-rule="nonzero"/></clipPath></defs><g fill="#f7591f" fill-opacity="1"><g transform="translate(76.41088, 179.588253)"><g><path d="M 6.640625 -17.21875 C 6.035156 -17.21875 5.578125 -16.957031 5.265625 -16.4375 C 5.128906 -16.207031 5.054688 -15.941406 5.046875 -15.640625 L 5.046875 0 C 5.046875 1.394531 4.609375 2.570312 3.734375 3.53125 C 2.859375 4.5 1.78125 4.984375 0.5 4.984375 L 0.5 4.765625 C 1.3125 4.484375 2 3.867188 2.5625 2.921875 C 3.132812 1.984375 3.421875 0.984375 3.421875 -0.078125 L 3.421875 -15.640625 C 3.398438 -16.078125 3.234375 -16.445312 2.921875 -16.75 C 2.617188 -17.0625 2.253906 -17.21875 1.828125 -17.21875 L 1.5 -17.21875 L 1.5 -17.46875 L 6.96875 -17.46875 L 6.96875 -17.21875 Z M 6.640625 -17.21875 "/></g></g></g><g fill="#ffffff" fill-opacity="1"><g transform="translate(84.495007, 179.588253)"><g><path d="M 1.71875 -0.25 C 2.125 -0.25 2.460938 -0.375 2.734375 -0.625 C 3.003906 -0.882812 3.148438 -1.203125 3.171875 -1.578125 L 3.171875 -13.421875 C 3.171875 -13.785156 3.03125 -14.09375 2.75 -14.34375 C 2.46875 -14.59375 2.125 -14.71875 1.71875 -14.71875 L 1.375 -14.71875 L 1.375 -14.96875 L 8.65625 -14.96875 C 9.34375 -14.96875 9.941406 -15.015625 10.453125 -15.109375 C 10.972656 -15.210938 11.304688 -15.300781 11.453125 -15.375 L 11.453125 -12.53125 L 11.171875 -12.546875 L 11.171875 -12.921875 C 11.171875 -13.273438 11.054688 -13.578125 10.828125 -13.828125 C 10.597656 -14.078125 10.300781 -14.203125 9.9375 -14.203125 L 4.734375 -14.203125 L 4.734375 -7.859375 L 9.015625 -7.859375 C 9.335938 -7.859375 9.585938 -7.957031 9.765625 -8.15625 C 9.941406 -8.351562 10.03125 -8.601562 10.03125 -8.90625 L 10.03125 -9.234375 L 10.3125 -9.234375 L 10.3125 -5.734375 L 10.03125 -5.734375 L 10.03125 -6.0625 C 10.03125 -6.53125 9.851562 -6.847656 9.5 -7.015625 C 9.375 -7.066406 9.234375 -7.097656 9.078125 -7.109375 L 4.734375 -7.109375 L 4.734375 -0.78125 L 8.65625 -0.78125 C 9.425781 -0.78125 10.070312 -0.910156 10.59375 -1.171875 C 11.113281 -1.441406 11.507812 -1.757812 11.78125 -2.125 C 12.0625 -2.488281 12.34375 -2.96875 12.625 -3.5625 L 12.875 -3.5625 L 11.5 0 L 1.375 0 L 1.375 -0.25 Z M 1.71875 -0.25 "/></g></g></g><g fill="#ffffff" fill-opacity="1"><g transform="translate(98.110996, 179.588253)"><g><path d="M 22.5625 -14.71875 L 22.390625 -14.71875 C 21.390625 -14.71875 20.707031 -14.226562 20.34375 -13.25 L 16.71875 -2.46875 C 16.351562 -1.414062 16.160156 -0.492188 16.140625 0.296875 L 15.890625 0.296875 L 11.25 -11.578125 L 8.015625 -2.46875 C 7.679688 -1.4375 7.5 -0.515625 7.46875 0.296875 L 7.234375 0.296875 L 2 -13.34375 C 1.613281 -14.257812 0.945312 -14.71875 0 -14.71875 L -0.203125 -14.71875 L -0.203125 -14.96875 L 4.9375 -14.96875 L 4.9375 -14.71875 L 4.734375 -14.71875 C 4.441406 -14.71875 4.210938 -14.625 4.046875 -14.4375 C 3.890625 -14.257812 3.8125 -14.078125 3.8125 -13.890625 C 3.8125 -13.710938 3.835938 -13.539062 3.890625 -13.375 L 7.21875 -3.21875 L 11.421875 -15.375 L 11.671875 -15.34375 L 16.140625 -3.96875 L 18.9375 -13.21875 C 19.019531 -13.457031 19.0625 -13.664062 19.0625 -13.84375 C 19.0625 -14.03125 18.992188 -14.222656 18.859375 -14.421875 C 18.734375 -14.617188 18.507812 -14.71875 18.1875 -14.71875 L 17.984375 -14.71875 L 17.984375 -14.96875 L 22.5625 -14.96875 Z M 22.5625 -14.71875 "/></g></g></g><g fill="#ffffff" fill-opacity="1"><g transform="translate(120.530001, 179.588253)"><g><path d="M 1.71875 -0.25 C 2.125 -0.25 2.460938 -0.375 2.734375 -0.625 C 3.003906 -0.882812 3.148438 -1.203125 3.171875 -1.578125 L 3.171875 -13.421875 C 3.171875 -13.785156 3.03125 -14.09375 2.75 -14.34375 C 2.46875 -14.59375 2.125 -14.71875 1.71875 -14.71875 L 1.375 -14.71875 L 1.375 -14.96875 L 8.65625 -14.96875 C 9.34375 -14.96875 9.941406 -15.015625 10.453125 -15.109375 C 10.972656 -15.210938 11.304688 -15.300781 11.453125 -15.375 L 11.453125 -12.53125 L 11.171875 -12.546875 L 11.171875 -12.921875 C 11.171875 -13.273438 11.054688 -13.578125 10.828125 -13.828125 C 10.597656 -14.078125 10.300781 -14.203125 9.9375 -14.203125 L 4.734375 -14.203125 L 4.734375 -7.859375 L 9.015625 -7.859375 C 9.335938 -7.859375 9.585938 -7.957031 9.765625 -8.15625 C 9.941406 -8.351562 10.03125 -8.601562 10.03125 -8.90625 L 10.03125 -9.234375 L 10.3125 -9.234375 L 10.3125 -5.734375 L 10.03125 -5.734375 L 10.03125 -6.0625 C 10.03125 -6.53125 9.851562 -6.847656 9.5 -7.015625 C 9.375 -7.066406 9.234375 -7.097656 9.078125 -7.109375 L 4.734375 -7.109375 L 4.734375 -0.78125 L 8.65625 -0.78125 C 9.425781 -0.78125 10.070312 -0.910156 10.59375 -1.171875 C 11.113281 -1.441406 11.507812 -1.757812 11.78125 -2.125 C 12.0625 -2.488281 12.34375 -2.96875 12.625 -3.5625 L 12.875 -3.5625 L 11.5 0 L 1.375 0 L 1.375 -0.25 Z M 1.71875 -0.25 "/></g></g></g><g fill="#ffffff" fill-opacity="1"><g transform="translate(134.14599, 179.588253)"><g><path d="M 1.71875 -0.25 C 2.125 -0.25 2.460938 -0.375 2.734375 -0.625 C 3.003906 -0.882812 3.148438 -1.203125 3.171875 -1.578125 L 3.171875 -13.375 C 3.148438 -13.738281 2.992188 -14.050781 2.703125 -14.3125 C 2.410156 -14.582031 2.066406 -14.71875 1.671875 -14.71875 L 1.375 -14.71875 L 1.375 -14.96875 L 6.53125 -14.96875 L 6.53125 -14.71875 L 6.234375 -14.71875 C 5.835938 -14.71875 5.492188 -14.582031 5.203125 -14.3125 C 4.910156 -14.050781 4.765625 -13.738281 4.765625 -13.375 L 4.765625 -0.78125 L 8.65625 -0.78125 C 9.425781 -0.78125 10.078125 -0.910156 10.609375 -1.171875 C 11.140625 -1.441406 11.539062 -1.757812 11.8125 -2.125 C 12.09375 -2.488281 12.363281 -2.96875 12.625 -3.5625 L 12.875 -3.5625 L 11.5 0 L 1.375 0 L 1.375 -0.25 Z M 1.71875 -0.25 "/></g></g></g><g fill="#ffffff" fill-opacity="1"><g transform="translate(147.512605, 179.588253)"><g><path d="M 6.03125 -14.203125 L 4.71875 -14.203125 L 4.71875 -1.59375 C 4.726562 -1.082031 4.960938 -0.691406 5.421875 -0.421875 C 5.628906 -0.304688 5.867188 -0.25 6.140625 -0.25 L 6.46875 -0.25 L 6.484375 0 L 1.375 0 L 1.375 -0.25 L 1.71875 -0.25 C 2.101562 -0.25 2.429688 -0.375 2.703125 -0.625 C 2.984375 -0.882812 3.125 -1.203125 3.125 -1.578125 L 3.125 -13.421875 C 3.125 -13.785156 2.984375 -14.09375 2.703125 -14.34375 C 2.429688 -14.59375 2.101562 -14.71875 1.71875 -14.71875 L 1.375 -14.71875 L 1.375 -14.96875 L 7.640625 -14.96875 C 9.203125 -14.96875 10.4375 -14.609375 11.34375 -13.890625 C 12.25 -13.179688 12.703125 -12.242188 12.703125 -11.078125 C 12.703125 -9.910156 12.332031 -8.9375 11.59375 -8.15625 C 10.863281 -7.375 9.9375 -6.925781 8.8125 -6.8125 C 9.34375 -6.582031 9.984375 -5.929688 10.734375 -4.859375 C 10.710938 -4.859375 11 -4.492188 11.59375 -3.765625 C 12.1875 -3.035156 12.660156 -2.46875 13.015625 -2.0625 C 13.367188 -1.65625 13.664062 -1.34375 13.90625 -1.125 C 14.519531 -0.539062 15.222656 -0.25 16.015625 -0.25 L 16.015625 0 L 15.25 0 C 13.9375 0 12.90625 -0.257812 12.15625 -0.78125 C 11.582031 -1.15625 11.066406 -1.628906 10.609375 -2.203125 C 10.503906 -2.328125 10.082031 -2.910156 9.34375 -3.953125 C 8.601562 -4.992188 8.207031 -5.546875 8.15625 -5.609375 C 7.257812 -6.722656 6.421875 -7.28125 5.640625 -7.28125 L 5.640625 -7.53125 C 7.585938 -7.53125 8.757812 -7.628906 9.15625 -7.828125 C 9.707031 -8.117188 10.082031 -8.421875 10.28125 -8.734375 C 10.695312 -9.398438 10.90625 -10.128906 10.90625 -10.921875 C 10.90625 -11.941406 10.601562 -12.722656 10 -13.265625 C 9.40625 -13.816406 8.597656 -14.117188 7.578125 -14.171875 C 7.128906 -14.191406 6.613281 -14.203125 6.03125 -14.203125 Z M 6.03125 -14.203125 "/></g></g></g><g fill="#ffffff" fill-opacity="1"><g transform="translate(163.148547, 179.588253)"><g><path d="M 16.09375 -14.71875 L 15.796875 -14.71875 C 15.347656 -14.71875 14.921875 -14.597656 14.515625 -14.359375 C 14.109375 -14.117188 13.769531 -13.816406 13.5 -13.453125 L 8.703125 -6.1875 L 8.703125 -1.59375 C 8.703125 -1.226562 8.84375 -0.910156 9.125 -0.640625 C 9.414062 -0.378906 9.757812 -0.25 10.15625 -0.25 L 10.453125 -0.25 L 10.453125 0 L 5.34375 0 L 5.34375 -0.25 L 5.640625 -0.25 C 6.035156 -0.25 6.375 -0.378906 6.65625 -0.640625 C 6.945312 -0.910156 7.09375 -1.226562 7.09375 -1.59375 L 7.09375 -6.21875 L 2.46875 -13.46875 C 1.90625 -14.300781 1.140625 -14.71875 0.171875 -14.71875 L -0.125 -14.71875 L -0.125 -14.96875 L 5.671875 -14.96875 L 5.671875 -14.71875 L 5.359375 -14.71875 C 5.046875 -14.71875 4.816406 -14.617188 4.671875 -14.421875 C 4.535156 -14.222656 4.46875 -14.050781 4.46875 -13.90625 C 4.46875 -13.769531 4.484375 -13.644531 4.515625 -13.53125 L 8.15625 -7.0625 L 12.03125 -13.5 C 12.082031 -13.632812 12.109375 -13.769531 12.109375 -13.90625 C 12.109375 -14.050781 12.035156 -14.222656 11.890625 -14.421875 C 11.742188 -14.617188 11.503906 -14.71875 11.171875 -14.71875 L 10.875 -14.71875 L 10.875 -14.96875 L 16.09375 -14.96875 Z M 16.09375 -14.71875 "/></g></g></g><g fill="#ffffff" fill-opacity="1"><g transform="translate(179.108682, 179.588253)"><g/></g></g><g fill="#ffffff" fill-opacity="1"><g transform="translate(185.343111, 179.588253)"><g><path d="M 6.640625 -17.21875 C 6.035156 -17.21875 5.578125 -16.957031 5.265625 -16.4375 C 5.128906 -16.207031 5.054688 -15.941406 5.046875 -15.640625 L 5.046875 0 C 5.046875 1.394531 4.609375 2.570312 3.734375 3.53125 C 2.859375 4.5 1.78125 4.984375 0.5 4.984375 L 0.5 4.765625 C 1.3125 4.484375 2 3.867188 2.5625 2.921875 C 3.132812 1.984375 3.421875 0.984375 3.421875 -0.078125 L 3.421875 -15.640625 C 3.398438 -16.078125 3.234375 -16.445312 2.921875 -16.75 C 2.617188 -17.0625 2.253906 -17.21875 1.828125 -17.21875 L 1.5 -17.21875 L 1.5 -17.46875 L 6.96875 -17.46875 L 6.96875 -17.21875 Z M 6.640625 -17.21875 "/></g></g></g><g fill="#ffffff" fill-opacity="1"><g transform="translate(193.422928, 179.588253)"><g><path d="M 16.59375 -14.71875 L 16.21875 -14.71875 C 15.769531 -14.71875 15.429688 -14.546875 15.203125 -14.203125 C 15.097656 -14.046875 15.035156 -13.867188 15.015625 -13.671875 L 15.015625 -5.265625 C 15.015625 -3.535156 14.460938 -2.164062 13.359375 -1.15625 C 12.253906 -0.15625 10.734375 0.34375 8.796875 0.34375 C 6.867188 0.34375 5.347656 -0.148438 4.234375 -1.140625 C 3.117188 -2.140625 2.5625 -3.503906 2.5625 -5.234375 L 2.5625 -13.65625 C 2.5625 -13.945312 2.445312 -14.195312 2.21875 -14.40625 C 1.988281 -14.613281 1.707031 -14.71875 1.375 -14.71875 L 1 -14.71875 L 1 -14.96875 L 5.734375 -14.96875 L 5.734375 -14.71875 L 5.359375 -14.71875 C 5.023438 -14.71875 4.742188 -14.613281 4.515625 -14.40625 C 4.285156 -14.195312 4.171875 -13.945312 4.171875 -13.65625 L 4.171875 -5.546875 C 4.171875 -3.929688 4.582031 -2.65625 5.40625 -1.71875 C 6.226562 -0.789062 7.390625 -0.328125 8.890625 -0.328125 C 10.398438 -0.328125 11.609375 -0.765625 12.515625 -1.640625 C 13.421875 -2.523438 13.875 -3.734375 13.875 -5.265625 L 13.875 -13.65625 C 13.851562 -13.96875 13.726562 -14.222656 13.5 -14.421875 C 13.28125 -14.617188 13.003906 -14.71875 12.671875 -14.71875 L 12.296875 -14.71875 L 12.296875 -14.96875 L 16.59375 -14.96875 Z M 16.59375 -14.71875 "/></g></g></g><g fill="#ffffff" fill-opacity="1"><g transform="translate(210.879326, 179.588253)"><g><path d="M 18.140625 -14.71875 C 17.773438 -14.71875 17.457031 -14.597656 17.1875 -14.359375 C 16.925781 -14.117188 16.785156 -13.820312 16.765625 -13.46875 L 16.765625 -2.84375 C 16.765625 -1.875 16.820312 -0.957031 16.9375 -0.09375 L 17 0.34375 L 16.765625 0.34375 L 3.796875 -11.953125 L 3.796875 -1.546875 C 3.796875 -1.179688 3.925781 -0.875 4.1875 -0.625 C 4.457031 -0.375 4.785156 -0.25 5.171875 -0.25 L 5.59375 -0.25 L 5.59375 0 L 0.875 0 L 0.875 -0.25 L 1.296875 -0.25 C 1.679688 -0.25 2.003906 -0.375 2.265625 -0.625 C 2.535156 -0.875 2.671875 -1.179688 2.671875 -1.546875 L 2.671875 -12.234375 C 2.671875 -13.242188 2.613281 -14.148438 2.5 -14.953125 L 2.453125 -15.34375 L 2.71875 -15.328125 L 15.671875 -3.125 L 15.671875 -13.46875 C 15.640625 -13.820312 15.488281 -14.117188 15.21875 -14.359375 C 14.957031 -14.597656 14.640625 -14.71875 14.265625 -14.71875 L 13.84375 -14.71875 L 13.84375 -14.96875 L 18.5625 -14.96875 L 18.5625 -14.71875 Z M 18.140625 -14.71875 "/></g></g></g><g fill="#ffffff" fill-opacity="1"><g transform="translate(230.305804, 179.588253)"><g><path d="M 9.484375 0.34375 C 6.941406 0.332031 4.929688 -0.367188 3.453125 -1.765625 C 1.984375 -3.171875 1.25 -5.082031 1.25 -7.5 C 1.25 -9.914062 1.984375 -11.820312 3.453125 -13.21875 C 4.929688 -14.625 6.941406 -15.328125 9.484375 -15.328125 C 10.515625 -15.328125 11.550781 -15.191406 12.59375 -14.921875 C 13.644531 -14.648438 14.554688 -14.285156 15.328125 -13.828125 L 15.875 -10.28125 L 15.640625 -10.28125 C 14.929688 -13.144531 12.867188 -14.578125 9.453125 -14.578125 C 7.472656 -14.578125 5.910156 -13.941406 4.765625 -12.671875 C 3.617188 -11.410156 3.046875 -9.679688 3.046875 -7.484375 C 3.046875 -6.054688 3.300781 -4.8125 3.8125 -3.75 C 4.332031 -2.695312 5.082031 -1.878906 6.0625 -1.296875 C 7.039062 -0.710938 8.175781 -0.421875 9.46875 -0.421875 C 10.769531 -0.421875 11.90625 -0.613281 12.875 -1 C 13.851562 -1.394531 14.660156 -2.039062 15.296875 -2.9375 C 15.941406 -3.84375 16.304688 -4.957031 16.390625 -6.28125 L 16.625 -6.28125 L 16.34375 -2.875 C 15.695312 -1.875 14.753906 -1.085938 13.515625 -0.515625 C 12.285156 0.0546875 10.941406 0.34375 9.484375 0.34375 Z M 9.484375 0.34375 "/></g></g></g><g fill="#ffffff" fill-opacity="1"><g transform="translate(247.886894, 179.588253)"><g><path d="M 8.03125 -14.25 L 8.03125 -1.578125 C 8.050781 -1.054688 8.300781 -0.671875 8.78125 -0.421875 C 9 -0.304688 9.238281 -0.25 9.5 -0.25 L 9.78125 -0.25 L 9.78125 0 L 4.640625 0 L 4.640625 -0.25 L 4.9375 -0.25 C 5.34375 -0.25 5.6875 -0.378906 5.96875 -0.640625 C 6.25 -0.910156 6.394531 -1.226562 6.40625 -1.59375 L 6.40625 -14.25 L 1.890625 -14.25 C 1.515625 -14.25 1.210938 -14.125 0.984375 -13.875 C 0.765625 -13.625 0.65625 -13.320312 0.65625 -12.96875 L 0.65625 -12.578125 L 0.375 -12.578125 L 0.375 -15.390625 C 0.707031 -15.265625 1.175781 -15.164062 1.78125 -15.09375 C 2.382812 -15.03125 2.835938 -15 3.140625 -15 L 11.28125 -15 C 12.476562 -15 13.410156 -15.128906 14.078125 -15.390625 L 14.078125 -12.578125 L 13.796875 -12.578125 L 13.796875 -12.96875 C 13.796875 -13.320312 13.675781 -13.625 13.4375 -13.875 C 13.207031 -14.125 12.910156 -14.25 12.546875 -14.25 Z M 8.03125 -14.25 "/></g></g></g><g fill="#ffffff" fill-opacity="1"><g transform="translate(262.30089, 179.588253)"><g><path d="M 1.71875 -0.25 C 2.164062 -0.25 2.554688 -0.378906 2.890625 -0.640625 C 3.222656 -0.910156 3.390625 -1.226562 3.390625 -1.59375 L 3.390625 -13.375 C 3.390625 -13.738281 3.222656 -14.050781 2.890625 -14.3125 C 2.554688 -14.582031 2.160156 -14.71875 1.703125 -14.71875 L 1.375 -14.71875 L 1.375 -14.96875 L 7.015625 -14.96875 L 7.015625 -14.71875 L 6.6875 -14.71875 C 6.238281 -14.71875 5.851562 -14.59375 5.53125 -14.34375 C 5.207031 -14.09375 5.023438 -13.785156 4.984375 -13.421875 L 4.984375 -1.578125 C 5.003906 -1.203125 5.179688 -0.882812 5.515625 -0.625 C 5.847656 -0.375 6.238281 -0.25 6.6875 -0.25 L 7.015625 -0.25 L 7.03125 0 L 1.375 0 L 1.375 -0.25 Z M 1.71875 -0.25 "/></g></g></g><g fill="#ffffff" fill-opacity="1"><g transform="translate(270.679966, 179.588253)"><g><path d="M 5.4375 -14.328125 C 6.71875 -14.992188 8.128906 -15.328125 9.671875 -15.328125 C 11.210938 -15.328125 12.617188 -14.992188 13.890625 -14.328125 C 15.171875 -13.671875 16.191406 -12.742188 16.953125 -11.546875 C 17.710938 -10.347656 18.09375 -8.992188 18.09375 -7.484375 C 18.09375 -5.972656 17.710938 -4.617188 16.953125 -3.421875 C 16.191406 -2.222656 15.171875 -1.296875 13.890625 -0.640625 C 12.617188 0.015625 11.304688 0.34375 9.953125 0.34375 C 8.609375 0.34375 7.421875 0.15625 6.390625 -0.21875 C 5.359375 -0.601562 4.460938 -1.132812 3.703125 -1.8125 C 2.941406 -2.5 2.34375 -3.332031 1.90625 -4.3125 C 1.46875 -5.300781 1.25 -6.453125 1.25 -7.765625 C 1.25 -9.085938 1.625 -10.347656 2.375 -11.546875 C 3.132812 -12.742188 4.15625 -13.671875 5.4375 -14.328125 Z M 4.96875 -2.375 C 6.226562 -1.0625 7.789062 -0.40625 9.65625 -0.40625 C 11.519531 -0.40625 13.082031 -1.0625 14.34375 -2.375 C 15.613281 -3.695312 16.25 -5.398438 16.25 -7.484375 C 16.25 -9.566406 15.613281 -11.269531 14.34375 -12.59375 C 13.082031 -13.914062 11.519531 -14.578125 9.65625 -14.578125 C 7.789062 -14.578125 6.226562 -13.914062 4.96875 -12.59375 C 3.71875 -11.269531 3.09375 -9.566406 3.09375 -7.484375 C 3.09375 -5.398438 3.71875 -3.695312 4.96875 -2.375 Z M 4.96875 -2.375 "/></g></g></g><g fill="#ffffff" fill-opacity="1"><g transform="translate(289.981762, 179.588253)"><g><path d="M 18.140625 -14.71875 C 17.773438 -14.71875 17.457031 -14.597656 17.1875 -14.359375 C 16.925781 -14.117188 16.785156 -13.820312 16.765625 -13.46875 L 16.765625 -2.84375 C 16.765625 -1.875 16.820312 -0.957031 16.9375 -0.09375 L 17 0.34375 L 16.765625 0.34375 L 3.796875 -11.953125 L 3.796875 -1.546875 C 3.796875 -1.179688 3.925781 -0.875 4.1875 -0.625 C 4.457031 -0.375 4.785156 -0.25 5.171875 -0.25 L 5.59375 -0.25 L 5.59375 0 L 0.875 0 L 0.875 -0.25 L 1.296875 -0.25 C 1.679688 -0.25 2.003906 -0.375 2.265625 -0.625 C 2.535156 -0.875 2.671875 -1.179688 2.671875 -1.546875 L 2.671875 -12.234375 C 2.671875 -13.242188 2.613281 -14.148438 2.5 -14.953125 L 2.453125 -15.34375 L 2.71875 -15.328125 L 15.671875 -3.125 L 15.671875 -13.46875 C 15.640625 -13.820312 15.488281 -14.117188 15.21875 -14.359375 C 14.957031 -14.597656 14.640625 -14.71875 14.265625 -14.71875 L 13.84375 -14.71875 L 13.84375 -14.96875 L 18.5625 -14.96875 L 18.5625 -14.71875 Z M 18.140625 -14.71875 "/></g></g></g><g clip-path="url(#7e17f37b60)"><path fill="#f7591f" d="M 190.707031 151.929688 L 193.667969 155.621094 L 189.972656 152.660156 L 189.414062 162.007812 L 188.851562 152.660156 L 185.160156 155.621094 L 188.121094 151.929688 L 178.773438 151.367188 L 188.121094 150.808594 L 185.160156 147.117188 L 188.851562 150.078125 L 189.414062 140.726562 L 189.972656 150.078125 L 193.667969 147.117188 L 190.707031 150.808594 L 200.054688 151.367188 Z M 190.707031 151.929688 " fill-opacity="1" fill-rule="nonzero"/></g><g clip-path="url(#0195060db2)"><path fill="#ffffff" d="M 72.832031 170.265625 L 74.648438 172.527344 L 72.386719 170.710938 L 72.042969 176.441406 L 71.699219 170.710938 L 69.433594 172.527344 L 71.25 170.265625 L 65.519531 169.921875 L 71.25 169.578125 L 69.433594 167.3125 L 71.699219 169.128906 L 72.042969 163.398438 L 72.386719 169.128906 L 74.648438 167.3125 L 72.832031 169.578125 L 78.5625 169.921875 Z M 72.832031 170.265625 " fill-opacity="1" fill-rule="nonzero"/></g></svg>