<svg xmlns="http://www.w3.org/2000/svg" xmlns:xlink="http://www.w3.org/1999/xlink" width="500" zoomAndPan="magnify" viewBox="0 0 375 374.999991" height="500" preserveAspectRatio="xMidYMid meet" version="1.0"><defs><g/><clipPath id="904938b0f6"><path d="M 175.277344 121.902344 L 205.277344 121.902344 L 205.277344 151.902344 L 175.277344 151.902344 Z M 175.277344 121.902344 " clip-rule="nonzero"/></clipPath><clipPath id="f788375da2"><path d="M 16.4375 153.699219 L 34.4375 153.699219 L 34.4375 171.699219 L 16.4375 171.699219 Z M 16.4375 153.699219 " clip-rule="nonzero"/></clipPath></defs><g fill="#f7591f" fill-opacity="1"><g transform="translate(31.712132, 176.403698)"><g><path d="M 9.3125 -24.140625 C 8.46875 -24.140625 7.820312 -23.773438 7.375 -23.046875 C 7.195312 -22.722656 7.09375 -22.351562 7.0625 -21.9375 L 7.0625 0 C 7.0625 1.957031 6.445312 3.613281 5.21875 4.96875 C 4 6.320312 2.492188 7 0.703125 7 L 0.703125 6.6875 C 1.835938 6.289062 2.800781 5.429688 3.59375 4.109375 C 4.394531 2.796875 4.796875 1.390625 4.796875 -0.109375 L 4.796875 -21.9375 C 4.773438 -22.539062 4.546875 -23.054688 4.109375 -23.484375 C 3.679688 -23.921875 3.160156 -24.140625 2.546875 -24.140625 L 2.09375 -24.140625 L 2.09375 -24.484375 L 9.765625 -24.484375 L 9.765625 -24.140625 Z M 9.3125 -24.140625 "/></g></g></g><g fill="#000000" fill-opacity="1"><g transform="translate(43.050241, 176.403698)"><g><path d="M 2.40625 -0.34375 C 2.96875 -0.34375 3.441406 -0.523438 3.828125 -0.890625 C 4.210938 -1.253906 4.414062 -1.691406 4.4375 -2.203125 L 4.4375 -18.828125 C 4.4375 -19.335938 4.238281 -19.765625 3.84375 -20.109375 C 3.445312 -20.460938 2.96875 -20.640625 2.40625 -20.640625 L 1.921875 -20.640625 L 1.921875 -20.984375 L 12.140625 -20.984375 C 13.097656 -20.984375 13.9375 -21.050781 14.65625 -21.1875 C 15.382812 -21.332031 15.851562 -21.453125 16.0625 -21.546875 L 16.0625 -17.5625 L 15.671875 -17.59375 L 15.671875 -18.125 C 15.671875 -18.613281 15.503906 -19.03125 15.171875 -19.375 C 14.847656 -19.726562 14.429688 -19.90625 13.921875 -19.90625 L 6.640625 -19.90625 L 6.640625 -11.015625 L 12.625 -11.015625 C 13.09375 -11.015625 13.445312 -11.15625 13.6875 -11.4375 C 13.9375 -11.71875 14.0625 -12.066406 14.0625 -12.484375 L 14.0625 -12.9375 L 14.453125 -12.9375 L 14.453125 -8.046875 L 14.0625 -8.046875 L 14.0625 -8.5 C 14.0625 -9.15625 13.816406 -9.597656 13.328125 -9.828125 C 13.140625 -9.898438 12.941406 -9.945312 12.734375 -9.96875 L 6.640625 -9.96875 L 6.640625 -1.078125 L 12.140625 -1.078125 C 13.210938 -1.078125 14.113281 -1.265625 14.84375 -1.640625 C 15.582031 -2.015625 16.144531 -2.457031 16.53125 -2.96875 C 16.914062 -3.488281 17.304688 -4.164062 17.703125 -5 L 18.046875 -5 L 16.125 0 L 1.921875 0 L 1.921875 -0.34375 Z M 2.40625 -0.34375 "/></g></g></g><g fill="#000000" fill-opacity="1"><g transform="translate(62.146869, 176.403698)"><g><path d="M 31.625 -20.640625 L 31.375 -20.640625 C 29.976562 -20.640625 29.023438 -19.953125 28.515625 -18.578125 L 23.4375 -3.46875 C 22.925781 -2 22.660156 -0.703125 22.640625 0.421875 L 22.28125 0.421875 L 15.78125 -16.234375 L 11.234375 -3.46875 C 10.765625 -2.019531 10.503906 -0.722656 10.453125 0.421875 L 10.140625 0.421875 L 2.796875 -18.71875 C 2.265625 -20 1.332031 -20.640625 0 -20.640625 L -0.28125 -20.640625 L -0.28125 -20.984375 L 6.921875 -20.984375 L 6.921875 -20.640625 L 6.640625 -20.640625 C 6.222656 -20.640625 5.90625 -20.507812 5.6875 -20.25 C 5.46875 -20 5.359375 -19.742188 5.359375 -19.484375 C 5.359375 -19.222656 5.390625 -18.976562 5.453125 -18.75 L 10.109375 -4.515625 L 16.015625 -21.546875 L 16.375 -21.515625 L 22.640625 -5.5625 L 26.546875 -18.546875 C 26.671875 -18.867188 26.734375 -19.15625 26.734375 -19.40625 C 26.734375 -19.664062 26.640625 -19.9375 26.453125 -20.21875 C 26.265625 -20.5 25.945312 -20.640625 25.5 -20.640625 L 25.21875 -20.640625 L 25.21875 -20.984375 L 31.625 -20.984375 Z M 31.625 -20.640625 "/></g></g></g><g fill="#000000" fill-opacity="1"><g transform="translate(93.589859, 176.403698)"><g><path d="M 2.40625 -0.34375 C 2.96875 -0.34375 3.441406 -0.523438 3.828125 -0.890625 C 4.210938 -1.253906 4.414062 -1.691406 4.4375 -2.203125 L 4.4375 -18.828125 C 4.4375 -19.335938 4.238281 -19.765625 3.84375 -20.109375 C 3.445312 -20.460938 2.96875 -20.640625 2.40625 -20.640625 L 1.921875 -20.640625 L 1.921875 -20.984375 L 12.140625 -20.984375 C 13.097656 -20.984375 13.9375 -21.050781 14.65625 -21.1875 C 15.382812 -21.332031 15.851562 -21.453125 16.0625 -21.546875 L 16.0625 -17.5625 L 15.671875 -17.59375 L 15.671875 -18.125 C 15.671875 -18.613281 15.503906 -19.03125 15.171875 -19.375 C 14.847656 -19.726562 14.429688 -19.90625 13.921875 -19.90625 L 6.640625 -19.90625 L 6.640625 -11.015625 L 12.625 -11.015625 C 13.09375 -11.015625 13.445312 -11.15625 13.6875 -11.4375 C 13.9375 -11.71875 14.0625 -12.066406 14.0625 -12.484375 L 14.0625 -12.9375 L 14.453125 -12.9375 L 14.453125 -8.046875 L 14.0625 -8.046875 L 14.0625 -8.5 C 14.0625 -9.15625 13.816406 -9.597656 13.328125 -9.828125 C 13.140625 -9.898438 12.941406 -9.945312 12.734375 -9.96875 L 6.640625 -9.96875 L 6.640625 -1.078125 L 12.140625 -1.078125 C 13.210938 -1.078125 14.113281 -1.265625 14.84375 -1.640625 C 15.582031 -2.015625 16.144531 -2.457031 16.53125 -2.96875 C 16.914062 -3.488281 17.304688 -4.164062 17.703125 -5 L 18.046875 -5 L 16.125 0 L 1.921875 0 L 1.921875 -0.34375 Z M 2.40625 -0.34375 "/></g></g></g><g fill="#000000" fill-opacity="1"><g transform="translate(112.686488, 176.403698)"><g><path d="M 2.40625 -0.34375 C 2.96875 -0.34375 3.441406 -0.523438 3.828125 -0.890625 C 4.210938 -1.253906 4.414062 -1.691406 4.4375 -2.203125 L 4.4375 -18.75 C 4.414062 -19.257812 4.203125 -19.703125 3.796875 -20.078125 C 3.390625 -20.453125 2.90625 -20.640625 2.34375 -20.640625 L 1.921875 -20.640625 L 1.921875 -20.984375 L 9.171875 -20.984375 L 9.171875 -20.640625 L 8.75 -20.640625 C 8.1875 -20.640625 7.703125 -20.453125 7.296875 -20.078125 C 6.890625 -19.703125 6.6875 -19.257812 6.6875 -18.75 L 6.6875 -1.078125 L 12.140625 -1.078125 C 13.210938 -1.078125 14.117188 -1.265625 14.859375 -1.640625 C 15.609375 -2.015625 16.175781 -2.457031 16.5625 -2.96875 C 16.945312 -3.488281 17.328125 -4.164062 17.703125 -5 L 18.046875 -5 L 16.125 0 L 1.921875 0 L 1.921875 -0.34375 Z M 2.40625 -0.34375 "/></g></g></g><g fill="#000000" fill-opacity="1"><g transform="translate(131.433365, 176.403698)"><g><path d="M 8.46875 -19.90625 L 6.609375 -19.90625 L 6.609375 -2.234375 C 6.628906 -1.515625 6.957031 -0.96875 7.59375 -0.59375 C 7.894531 -0.425781 8.234375 -0.34375 8.609375 -0.34375 L 9.0625 -0.34375 L 9.09375 0 L 1.921875 0 L 1.921875 -0.34375 L 2.40625 -0.34375 C 2.945312 -0.34375 3.410156 -0.523438 3.796875 -0.890625 C 4.179688 -1.253906 4.375 -1.691406 4.375 -2.203125 L 4.375 -18.828125 C 4.375 -19.335938 4.179688 -19.765625 3.796875 -20.109375 C 3.410156 -20.460938 2.945312 -20.640625 2.40625 -20.640625 L 1.921875 -20.640625 L 1.921875 -20.984375 L 10.703125 -20.984375 C 12.898438 -20.984375 14.632812 -20.484375 15.90625 -19.484375 C 17.175781 -18.484375 17.8125 -17.164062 17.8125 -15.53125 C 17.8125 -13.894531 17.296875 -12.53125 16.265625 -11.4375 C 15.242188 -10.34375 13.9375 -9.710938 12.34375 -9.546875 C 13.09375 -9.222656 13.992188 -8.316406 15.046875 -6.828125 C 15.023438 -6.828125 15.425781 -6.3125 16.25 -5.28125 C 17.070312 -4.257812 17.734375 -3.460938 18.234375 -2.890625 C 18.742188 -2.316406 19.160156 -1.878906 19.484375 -1.578125 C 20.347656 -0.753906 21.335938 -0.34375 22.453125 -0.34375 L 22.453125 0 L 21.375 0 C 19.53125 0 18.082031 -0.359375 17.03125 -1.078125 C 16.238281 -1.617188 15.519531 -2.285156 14.875 -3.078125 C 14.726562 -3.265625 14.132812 -4.085938 13.09375 -5.546875 C 12.0625 -7.003906 11.507812 -7.78125 11.4375 -7.875 C 10.175781 -9.4375 9 -10.21875 7.90625 -10.21875 L 7.90625 -10.5625 C 10.632812 -10.5625 12.28125 -10.703125 12.84375 -10.984375 C 13.613281 -11.378906 14.132812 -11.800781 14.40625 -12.25 C 14.988281 -13.175781 15.28125 -14.203125 15.28125 -15.328125 C 15.28125 -16.742188 14.859375 -17.835938 14.015625 -18.609375 C 13.179688 -19.378906 12.054688 -19.800781 10.640625 -19.875 C 10.003906 -19.894531 9.28125 -19.90625 8.46875 -19.90625 Z M 8.46875 -19.90625 "/></g></g></g><g fill="#000000" fill-opacity="1"><g transform="translate(153.363009, 176.403698)"><g><path d="M 22.5625 -20.640625 L 22.140625 -20.640625 C 21.515625 -20.640625 20.914062 -20.46875 20.34375 -20.125 C 19.769531 -19.789062 19.296875 -19.367188 18.921875 -18.859375 L 12.203125 -8.671875 L 12.203125 -2.234375 C 12.203125 -1.722656 12.398438 -1.28125 12.796875 -0.90625 C 13.203125 -0.53125 13.679688 -0.34375 14.234375 -0.34375 L 14.65625 -0.34375 L 14.65625 0 L 7.484375 0 L 7.484375 -0.34375 L 7.90625 -0.34375 C 8.46875 -0.34375 8.945312 -0.53125 9.34375 -0.90625 C 9.738281 -1.28125 9.9375 -1.722656 9.9375 -2.234375 L 9.9375 -8.71875 L 3.46875 -18.890625 C 2.675781 -20.054688 1.601562 -20.640625 0.25 -20.640625 L -0.171875 -20.640625 L -0.171875 -20.984375 L 7.9375 -20.984375 L 7.9375 -20.640625 L 7.515625 -20.640625 C 7.078125 -20.640625 6.757812 -20.5 6.5625 -20.21875 C 6.363281 -19.9375 6.265625 -19.695312 6.265625 -19.5 C 6.265625 -19.300781 6.285156 -19.125 6.328125 -18.96875 L 11.4375 -9.90625 L 16.859375 -18.921875 C 16.929688 -19.109375 16.96875 -19.300781 16.96875 -19.5 C 16.96875 -19.695312 16.867188 -19.9375 16.671875 -20.21875 C 16.472656 -20.5 16.140625 -20.640625 15.671875 -20.640625 L 15.25 -20.640625 L 15.25 -20.984375 L 22.5625 -20.984375 Z M 22.5625 -20.640625 "/></g></g></g><g fill="#000000" fill-opacity="1"><g transform="translate(175.747336, 176.403698)"><g/></g></g><g fill="#000000" fill-opacity="1"><g transform="translate(184.491217, 176.403698)"><g><path d="M 9.3125 -24.140625 C 8.46875 -24.140625 7.820312 -23.773438 7.375 -23.046875 C 7.195312 -22.722656 7.09375 -22.351562 7.0625 -21.9375 L 7.0625 0 C 7.0625 1.957031 6.445312 3.613281 5.21875 4.96875 C 4 6.320312 2.492188 7 0.703125 7 L 0.703125 6.6875 C 1.835938 6.289062 2.800781 5.429688 3.59375 4.109375 C 4.394531 2.796875 4.796875 1.390625 4.796875 -0.109375 L 4.796875 -21.9375 C 4.773438 -22.539062 4.546875 -23.054688 4.109375 -23.484375 C 3.679688 -23.921875 3.160156 -24.140625 2.546875 -24.140625 L 2.09375 -24.140625 L 2.09375 -24.484375 L 9.765625 -24.484375 L 9.765625 -24.140625 Z M 9.3125 -24.140625 "/></g></g></g><g fill="#000000" fill-opacity="1"><g transform="translate(195.823281, 176.403698)"><g><path d="M 23.265625 -20.640625 L 22.734375 -20.640625 C 22.109375 -20.640625 21.632812 -20.394531 21.3125 -19.90625 C 21.164062 -19.695312 21.082031 -19.453125 21.0625 -19.171875 L 21.0625 -7.375 C 21.0625 -4.957031 20.285156 -3.039062 18.734375 -1.625 C 17.179688 -0.21875 15.050781 0.484375 12.34375 0.484375 C 9.644531 0.484375 7.515625 -0.210938 5.953125 -1.609375 C 4.390625 -3.003906 3.609375 -4.914062 3.609375 -7.34375 L 3.609375 -19.140625 C 3.609375 -19.554688 3.441406 -19.910156 3.109375 -20.203125 C 2.785156 -20.492188 2.390625 -20.640625 1.921875 -20.640625 L 1.40625 -20.640625 L 1.40625 -20.984375 L 8.046875 -20.984375 L 8.046875 -20.640625 L 7.515625 -20.640625 C 7.054688 -20.640625 6.660156 -20.492188 6.328125 -20.203125 C 6.003906 -19.910156 5.84375 -19.554688 5.84375 -19.140625 L 5.84375 -7.765625 C 5.84375 -5.503906 6.421875 -3.71875 7.578125 -2.40625 C 8.734375 -1.101562 10.363281 -0.453125 12.46875 -0.453125 C 14.582031 -0.453125 16.273438 -1.066406 17.546875 -2.296875 C 18.816406 -3.535156 19.453125 -5.226562 19.453125 -7.375 L 19.453125 -19.140625 C 19.429688 -19.578125 19.257812 -19.9375 18.9375 -20.21875 C 18.625 -20.5 18.234375 -20.640625 17.765625 -20.640625 L 17.25 -20.640625 L 17.25 -20.984375 L 23.265625 -20.984375 Z M 23.265625 -20.640625 "/></g></g></g><g fill="#000000" fill-opacity="1"><g transform="translate(220.30614, 176.403698)"><g><path d="M 25.4375 -20.640625 C 24.914062 -20.640625 24.46875 -20.46875 24.09375 -20.125 C 23.726562 -19.789062 23.535156 -19.378906 23.515625 -18.890625 L 23.515625 -3.984375 C 23.515625 -2.628906 23.59375 -1.347656 23.75 -0.140625 L 23.828125 0.484375 L 23.515625 0.484375 L 5.3125 -16.75 L 5.3125 -2.171875 C 5.3125 -1.660156 5.5 -1.226562 5.875 -0.875 C 6.25 -0.519531 6.703125 -0.34375 7.234375 -0.34375 L 7.84375 -0.34375 L 7.84375 0 L 1.21875 0 L 1.21875 -0.34375 L 1.8125 -0.34375 C 2.351562 -0.34375 2.8125 -0.519531 3.1875 -0.875 C 3.5625 -1.226562 3.75 -1.660156 3.75 -2.171875 L 3.75 -17.140625 C 3.75 -18.566406 3.664062 -19.835938 3.5 -20.953125 L 3.421875 -21.515625 L 3.8125 -21.484375 L 21.96875 -4.375 L 21.96875 -18.890625 C 21.925781 -19.378906 21.71875 -19.789062 21.34375 -20.125 C 20.96875 -20.46875 20.523438 -20.640625 20.015625 -20.640625 L 19.421875 -20.640625 L 19.421875 -20.984375 L 26.03125 -20.984375 L 26.03125 -20.640625 Z M 25.4375 -20.640625 "/></g></g></g><g fill="#000000" fill-opacity="1"><g transform="translate(247.552066, 176.403698)"><g><path d="M 13.296875 0.484375 C 9.722656 0.460938 6.90625 -0.523438 4.84375 -2.484375 C 2.78125 -4.441406 1.75 -7.117188 1.75 -10.515625 C 1.75 -13.910156 2.78125 -16.585938 4.84375 -18.546875 C 6.90625 -20.503906 9.722656 -21.484375 13.296875 -21.484375 C 14.742188 -21.484375 16.203125 -21.296875 17.671875 -20.921875 C 19.140625 -20.546875 20.410156 -20.03125 21.484375 -19.375 L 22.25 -14.40625 L 21.9375 -14.40625 C 20.9375 -18.425781 18.046875 -20.4375 13.265625 -20.4375 C 10.484375 -20.4375 8.285156 -19.546875 6.671875 -17.765625 C 5.066406 -15.992188 4.265625 -13.570312 4.265625 -10.5 C 4.265625 -8.488281 4.625 -6.742188 5.34375 -5.265625 C 6.070312 -3.785156 7.125 -2.632812 8.5 -1.8125 C 9.875 -1 11.46875 -0.59375 13.28125 -0.59375 C 15.101562 -0.59375 16.695312 -0.863281 18.0625 -1.40625 C 19.425781 -1.957031 20.554688 -2.863281 21.453125 -4.125 C 22.359375 -5.382812 22.867188 -6.945312 22.984375 -8.8125 L 23.296875 -8.8125 L 22.921875 -4.015625 C 22.003906 -2.617188 20.679688 -1.519531 18.953125 -0.71875 C 17.234375 0.0820312 15.347656 0.484375 13.296875 0.484375 Z M 13.296875 0.484375 "/></g></g></g><g fill="#000000" fill-opacity="1"><g transform="translate(272.209809, 176.403698)"><g><path d="M 11.265625 -19.96875 L 11.265625 -2.203125 C 11.285156 -1.484375 11.632812 -0.945312 12.3125 -0.59375 C 12.613281 -0.425781 12.953125 -0.34375 13.328125 -0.34375 L 13.71875 -0.34375 L 13.71875 0 L 6.5 0 L 6.5 -0.34375 L 6.921875 -0.34375 C 7.484375 -0.34375 7.960938 -0.53125 8.359375 -0.90625 C 8.753906 -1.28125 8.960938 -1.722656 8.984375 -2.234375 L 8.984375 -19.96875 L 2.65625 -19.96875 C 2.125 -19.96875 1.695312 -19.789062 1.375 -19.4375 C 1.0625 -19.09375 0.90625 -18.675781 0.90625 -18.1875 L 0.90625 -17.625 L 0.53125 -17.625 L 0.53125 -21.578125 C 0.988281 -21.398438 1.644531 -21.265625 2.5 -21.171875 C 3.351562 -21.078125 3.988281 -21.03125 4.40625 -21.03125 L 15.8125 -21.03125 C 17.488281 -21.03125 18.796875 -21.210938 19.734375 -21.578125 L 19.734375 -17.625 L 19.34375 -17.625 L 19.34375 -18.1875 C 19.34375 -18.675781 19.175781 -19.09375 18.84375 -19.4375 C 18.519531 -19.789062 18.101562 -19.96875 17.59375 -19.96875 Z M 11.265625 -19.96875 "/></g></g></g><g fill="#000000" fill-opacity="1"><g transform="translate(292.425653, 176.403698)"><g><path d="M 2.40625 -0.34375 C 3.039062 -0.34375 3.59375 -0.53125 4.0625 -0.90625 C 4.53125 -1.28125 4.765625 -1.722656 4.765625 -2.234375 L 4.765625 -18.75 C 4.765625 -19.257812 4.53125 -19.703125 4.0625 -20.078125 C 3.59375 -20.453125 3.03125 -20.640625 2.375 -20.640625 L 1.921875 -20.640625 L 1.921875 -20.984375 L 9.828125 -20.984375 L 9.828125 -20.640625 L 9.375 -20.640625 C 8.75 -20.640625 8.207031 -20.460938 7.75 -20.109375 C 7.289062 -19.765625 7.039062 -19.335938 7 -18.828125 L 7 -2.203125 C 7.019531 -1.691406 7.265625 -1.253906 7.734375 -0.890625 C 8.203125 -0.523438 8.75 -0.34375 9.375 -0.34375 L 9.828125 -0.34375 L 9.859375 0 L 1.921875 0 L 1.921875 -0.34375 Z M 2.40625 -0.34375 "/></g></g></g><g fill="#000000" fill-opacity="1"><g transform="translate(304.177433, 176.403698)"><g><path d="M 7.625 -20.09375 C 9.425781 -21.019531 11.40625 -21.484375 13.5625 -21.484375 C 15.71875 -21.484375 17.691406 -21.019531 19.484375 -20.09375 C 21.285156 -19.175781 22.710938 -17.875 23.765625 -16.1875 C 24.828125 -14.507812 25.359375 -12.609375 25.359375 -10.484375 C 25.359375 -8.367188 24.828125 -6.472656 23.765625 -4.796875 C 22.710938 -3.117188 21.285156 -1.816406 19.484375 -0.890625 C 17.691406 0.0234375 15.847656 0.484375 13.953125 0.484375 C 12.066406 0.484375 10.398438 0.21875 8.953125 -0.3125 C 7.503906 -0.851562 6.25 -1.597656 5.1875 -2.546875 C 4.132812 -3.503906 3.296875 -4.671875 2.671875 -6.046875 C 2.054688 -7.421875 1.75 -9.035156 1.75 -10.890625 C 1.75 -12.742188 2.28125 -14.507812 3.34375 -16.1875 C 4.40625 -17.875 5.832031 -19.175781 7.625 -20.09375 Z M 6.984375 -3.34375 C 8.742188 -1.488281 10.925781 -0.5625 13.53125 -0.5625 C 16.144531 -0.5625 18.335938 -1.488281 20.109375 -3.34375 C 21.890625 -5.195312 22.78125 -7.582031 22.78125 -10.5 C 22.78125 -13.414062 21.890625 -15.800781 20.109375 -17.65625 C 18.335938 -19.507812 16.144531 -20.4375 13.53125 -20.4375 C 10.925781 -20.4375 8.742188 -19.507812 6.984375 -17.65625 C 5.222656 -15.800781 4.34375 -13.414062 4.34375 -10.5 C 4.34375 -7.582031 5.222656 -5.195312 6.984375 -3.34375 Z M 6.984375 -3.34375 "/></g></g></g><g fill="#000000" fill-opacity="1"><g transform="translate(331.248491, 176.403698)"><g><path d="M 25.4375 -20.640625 C 24.914062 -20.640625 24.46875 -20.46875 24.09375 -20.125 C 23.726562 -19.789062 23.535156 -19.378906 23.515625 -18.890625 L 23.515625 -3.984375 C 23.515625 -2.628906 23.59375 -1.347656 23.75 -0.140625 L 23.828125 0.484375 L 23.515625 0.484375 L 5.3125 -16.75 L 5.3125 -2.171875 C 5.3125 -1.660156 5.5 -1.226562 5.875 -0.875 C 6.25 -0.519531 6.703125 -0.34375 7.234375 -0.34375 L 7.84375 -0.34375 L 7.84375 0 L 1.21875 0 L 1.21875 -0.34375 L 1.8125 -0.34375 C 2.351562 -0.34375 2.8125 -0.519531 3.1875 -0.875 C 3.5625 -1.226562 3.75 -1.660156 3.75 -2.171875 L 3.75 -17.140625 C 3.75 -18.566406 3.664062 -19.835938 3.5 -20.953125 L 3.421875 -21.515625 L 3.8125 -21.484375 L 21.96875 -4.375 L 21.96875 -18.890625 C 21.925781 -19.378906 21.71875 -19.789062 21.34375 -20.125 C 20.96875 -20.46875 20.523438 -20.640625 20.015625 -20.640625 L 19.421875 -20.640625 L 19.421875 -20.984375 L 26.03125 -20.984375 L 26.03125 -20.640625 Z M 25.4375 -20.640625 "/></g></g></g><g clip-path="url(#904938b0f6)"><path fill="#f7591f" d="M 192.011719 137.609375 L 196.164062 142.789062 L 190.988281 138.636719 L 190.199219 151.75 L 189.414062 138.636719 L 184.234375 142.789062 L 188.390625 137.609375 L 175.277344 136.824219 L 188.390625 136.039062 L 184.234375 130.859375 L 189.414062 135.011719 L 190.199219 121.902344 L 190.988281 135.011719 L 196.164062 130.859375 L 192.011719 136.039062 L 205.125 136.824219 Z M 192.011719 137.609375 " fill-opacity="1" fill-rule="nonzero"/></g><g clip-path="url(#f788375da2)"><path fill="#000000" d="M 26.695312 163.324219 L 29.238281 166.5 L 26.066406 163.953125 L 25.582031 171.992188 L 25.101562 163.953125 L 21.929688 166.5 L 24.472656 163.324219 L 16.4375 162.84375 L 24.472656 162.363281 L 21.929688 159.1875 L 25.101562 161.734375 L 25.582031 153.699219 L 26.066406 161.734375 L 29.238281 159.1875 L 26.695312 162.363281 L 34.730469 162.84375 Z M 26.695312 163.324219 " fill-opacity="1" fill-rule="nonzero"/></g></svg>