<svg xmlns="http://www.w3.org/2000/svg" xmlns:xlink="http://www.w3.org/1999/xlink" width="500" zoomAndPan="magnify" viewBox="0 0 375 374.999991" height="500" preserveAspectRatio="xMidYMid meet" version="1.0"><defs><g/><clipPath id="177fde1884"><path d="M 178.773438 140.675781 L 199.773438 140.675781 L 199.773438 161.675781 L 178.773438 161.675781 Z M 178.773438 140.675781 " clip-rule="nonzero"/></clipPath><clipPath id="8c3a842a34"><path d="M 65.398438 163.371094 L 78.148438 163.371094 L 78.148438 176.121094 L 65.398438 176.121094 Z M 65.398438 163.371094 " clip-rule="nonzero"/></clipPath></defs><g fill="#f7591f" fill-opacity="1"><g transform="translate(76.300785, 179.579689)"><g><path d="M 6.640625 -17.234375 C 6.046875 -17.234375 5.585938 -16.972656 5.265625 -16.453125 C 5.128906 -16.222656 5.054688 -15.957031 5.046875 -15.65625 L 5.046875 0 C 5.046875 1.394531 4.609375 2.578125 3.734375 3.546875 C 2.859375 4.515625 1.78125 5 0.5 5 L 0.5 4.765625 C 1.3125 4.484375 2 3.867188 2.5625 2.921875 C 3.132812 1.984375 3.421875 0.984375 3.421875 -0.078125 L 3.421875 -15.65625 C 3.398438 -16.082031 3.234375 -16.453125 2.921875 -16.765625 C 2.617188 -17.078125 2.253906 -17.234375 1.828125 -17.234375 L 1.5 -17.234375 L 1.5 -17.484375 L 6.96875 -17.484375 L 6.96875 -17.234375 Z M 6.640625 -17.234375 "/></g></g></g><g fill="#000000" fill-opacity="1"><g transform="translate(84.393769, 179.579689)"><g><path d="M 1.71875 -0.25 C 2.125 -0.25 2.460938 -0.378906 2.734375 -0.640625 C 3.003906 -0.898438 3.148438 -1.210938 3.171875 -1.578125 L 3.171875 -13.4375 C 3.171875 -13.800781 3.03125 -14.109375 2.75 -14.359375 C 2.46875 -14.609375 2.125 -14.734375 1.71875 -14.734375 L 1.375 -14.734375 L 1.375 -14.984375 L 8.671875 -14.984375 C 9.347656 -14.984375 9.941406 -15.03125 10.453125 -15.125 C 10.972656 -15.226562 11.304688 -15.3125 11.453125 -15.375 L 11.453125 -12.53125 L 11.1875 -12.5625 L 11.1875 -12.9375 C 11.1875 -13.28125 11.066406 -13.578125 10.828125 -13.828125 C 10.597656 -14.078125 10.300781 -14.203125 9.9375 -14.203125 L 4.75 -14.203125 L 4.75 -7.859375 L 9.015625 -7.859375 C 9.347656 -7.859375 9.597656 -7.957031 9.765625 -8.15625 C 9.941406 -8.363281 10.03125 -8.613281 10.03125 -8.90625 L 10.03125 -9.234375 L 10.3125 -9.234375 L 10.3125 -5.75 L 10.03125 -5.75 L 10.03125 -6.0625 C 10.03125 -6.53125 9.859375 -6.847656 9.515625 -7.015625 C 9.378906 -7.066406 9.238281 -7.097656 9.09375 -7.109375 L 4.75 -7.109375 L 4.75 -0.78125 L 8.671875 -0.78125 C 9.429688 -0.78125 10.070312 -0.910156 10.59375 -1.171875 C 11.125 -1.441406 11.523438 -1.757812 11.796875 -2.125 C 12.066406 -2.488281 12.347656 -2.972656 12.640625 -3.578125 L 12.890625 -3.578125 L 11.515625 0 L 1.375 0 L 1.375 -0.25 Z M 1.71875 -0.25 "/></g></g></g><g fill="#000000" fill-opacity="1"><g transform="translate(98.024678, 179.579689)"><g><path d="M 22.578125 -14.734375 L 22.390625 -14.734375 C 21.398438 -14.734375 20.71875 -14.242188 20.34375 -13.265625 L 16.734375 -2.46875 C 16.367188 -1.425781 16.175781 -0.503906 16.15625 0.296875 L 15.90625 0.296875 L 11.265625 -11.578125 L 8.015625 -2.46875 C 7.679688 -1.4375 7.5 -0.515625 7.46875 0.296875 L 7.234375 0.296875 L 2 -13.359375 C 1.613281 -14.273438 0.945312 -14.734375 0 -14.734375 L -0.203125 -14.734375 L -0.203125 -14.984375 L 4.9375 -14.984375 L 4.9375 -14.734375 L 4.75 -14.734375 C 4.445312 -14.734375 4.210938 -14.640625 4.046875 -14.453125 C 3.890625 -14.273438 3.8125 -14.09375 3.8125 -13.90625 C 3.8125 -13.726562 3.835938 -13.554688 3.890625 -13.390625 L 7.21875 -3.21875 L 11.4375 -15.375 L 11.6875 -15.359375 L 16.15625 -3.96875 L 18.953125 -13.234375 C 19.035156 -13.460938 19.078125 -13.664062 19.078125 -13.84375 C 19.078125 -14.03125 19.007812 -14.222656 18.875 -14.421875 C 18.738281 -14.628906 18.515625 -14.734375 18.203125 -14.734375 L 18 -14.734375 L 18 -14.984375 L 22.578125 -14.984375 Z M 22.578125 -14.734375 "/></g></g></g><g fill="#000000" fill-opacity="1"><g transform="translate(120.468248, 179.579689)"><g><path d="M 1.71875 -0.25 C 2.125 -0.25 2.460938 -0.378906 2.734375 -0.640625 C 3.003906 -0.898438 3.148438 -1.210938 3.171875 -1.578125 L 3.171875 -13.4375 C 3.171875 -13.800781 3.03125 -14.109375 2.75 -14.359375 C 2.46875 -14.609375 2.125 -14.734375 1.71875 -14.734375 L 1.375 -14.734375 L 1.375 -14.984375 L 8.671875 -14.984375 C 9.347656 -14.984375 9.941406 -15.03125 10.453125 -15.125 C 10.972656 -15.226562 11.304688 -15.3125 11.453125 -15.375 L 11.453125 -12.53125 L 11.1875 -12.5625 L 11.1875 -12.9375 C 11.1875 -13.28125 11.066406 -13.578125 10.828125 -13.828125 C 10.597656 -14.078125 10.300781 -14.203125 9.9375 -14.203125 L 4.75 -14.203125 L 4.75 -7.859375 L 9.015625 -7.859375 C 9.347656 -7.859375 9.597656 -7.957031 9.765625 -8.15625 C 9.941406 -8.363281 10.03125 -8.613281 10.03125 -8.90625 L 10.03125 -9.234375 L 10.3125 -9.234375 L 10.3125 -5.75 L 10.03125 -5.75 L 10.03125 -6.0625 C 10.03125 -6.53125 9.859375 -6.847656 9.515625 -7.015625 C 9.378906 -7.066406 9.238281 -7.097656 9.09375 -7.109375 L 4.75 -7.109375 L 4.75 -0.78125 L 8.671875 -0.78125 C 9.429688 -0.78125 10.070312 -0.910156 10.59375 -1.171875 C 11.125 -1.441406 11.523438 -1.757812 11.796875 -2.125 C 12.066406 -2.488281 12.347656 -2.972656 12.640625 -3.578125 L 12.890625 -3.578125 L 11.515625 0 L 1.375 0 L 1.375 -0.25 Z M 1.71875 -0.25 "/></g></g></g><g fill="#000000" fill-opacity="1"><g transform="translate(134.099157, 179.579689)"><g><path d="M 1.71875 -0.25 C 2.125 -0.25 2.460938 -0.378906 2.734375 -0.640625 C 3.003906 -0.898438 3.148438 -1.210938 3.171875 -1.578125 L 3.171875 -13.390625 C 3.148438 -13.753906 2.992188 -14.066406 2.703125 -14.328125 C 2.410156 -14.597656 2.066406 -14.734375 1.671875 -14.734375 L 1.375 -14.734375 L 1.375 -14.984375 L 6.546875 -14.984375 L 6.546875 -14.734375 L 6.25 -14.734375 C 5.84375 -14.734375 5.492188 -14.597656 5.203125 -14.328125 C 4.910156 -14.066406 4.765625 -13.753906 4.765625 -13.390625 L 4.765625 -0.78125 L 8.671875 -0.78125 C 9.429688 -0.78125 10.078125 -0.910156 10.609375 -1.171875 C 11.140625 -1.441406 11.539062 -1.757812 11.8125 -2.125 C 12.09375 -2.488281 12.367188 -2.972656 12.640625 -3.578125 L 12.890625 -3.578125 L 11.515625 0 L 1.375 0 L 1.375 -0.25 Z M 1.71875 -0.25 "/></g></g></g><g fill="#000000" fill-opacity="1"><g transform="translate(147.480418, 179.579689)"><g><path d="M 6.046875 -14.203125 L 4.71875 -14.203125 L 4.71875 -1.59375 C 4.738281 -1.082031 4.972656 -0.691406 5.421875 -0.421875 C 5.640625 -0.304688 5.878906 -0.25 6.140625 -0.25 L 6.46875 -0.25 L 6.484375 0 L 1.375 0 L 1.375 -0.25 L 1.71875 -0.25 C 2.101562 -0.25 2.429688 -0.378906 2.703125 -0.640625 C 2.984375 -0.898438 3.125 -1.210938 3.125 -1.578125 L 3.125 -13.4375 C 3.125 -13.800781 2.984375 -14.109375 2.703125 -14.359375 C 2.429688 -14.609375 2.101562 -14.734375 1.71875 -14.734375 L 1.375 -14.734375 L 1.375 -14.984375 L 7.640625 -14.984375 C 9.203125 -14.984375 10.4375 -14.625 11.34375 -13.90625 C 12.25 -13.1875 12.703125 -12.242188 12.703125 -11.078125 C 12.703125 -9.921875 12.335938 -8.945312 11.609375 -8.15625 C 10.878906 -7.375 9.945312 -6.925781 8.8125 -6.8125 C 9.34375 -6.582031 9.984375 -5.9375 10.734375 -4.875 C 10.722656 -4.875 11.007812 -4.503906 11.59375 -3.765625 C 12.1875 -3.035156 12.660156 -2.46875 13.015625 -2.0625 C 13.378906 -1.65625 13.675781 -1.34375 13.90625 -1.125 C 14.519531 -0.539062 15.226562 -0.25 16.03125 -0.25 L 16.03125 0 L 15.25 0 C 13.9375 0 12.90625 -0.257812 12.15625 -0.78125 C 11.59375 -1.15625 11.078125 -1.628906 10.609375 -2.203125 C 10.515625 -2.328125 10.09375 -2.910156 9.34375 -3.953125 C 8.601562 -4.992188 8.210938 -5.550781 8.171875 -5.625 C 7.265625 -6.738281 6.421875 -7.296875 5.640625 -7.296875 L 5.640625 -7.546875 C 7.585938 -7.546875 8.757812 -7.644531 9.15625 -7.84375 C 9.707031 -8.125 10.082031 -8.421875 10.28125 -8.734375 C 10.695312 -9.398438 10.90625 -10.132812 10.90625 -10.9375 C 10.90625 -11.945312 10.601562 -12.726562 10 -13.28125 C 9.40625 -13.832031 8.601562 -14.132812 7.59375 -14.1875 C 7.144531 -14.195312 6.628906 -14.203125 6.046875 -14.203125 Z M 6.046875 -14.203125 "/></g></g></g><g fill="#000000" fill-opacity="1"><g transform="translate(163.133494, 179.579689)"><g><path d="M 16.109375 -14.734375 L 15.8125 -14.734375 C 15.351562 -14.734375 14.921875 -14.609375 14.515625 -14.359375 C 14.109375 -14.117188 13.773438 -13.816406 13.515625 -13.453125 L 8.71875 -6.1875 L 8.71875 -1.59375 C 8.71875 -1.226562 8.859375 -0.910156 9.140625 -0.640625 C 9.421875 -0.378906 9.757812 -0.25 10.15625 -0.25 L 10.46875 -0.25 L 10.46875 0 L 5.34375 0 L 5.34375 -0.25 L 5.640625 -0.25 C 6.046875 -0.25 6.390625 -0.378906 6.671875 -0.640625 C 6.953125 -0.910156 7.09375 -1.226562 7.09375 -1.59375 L 7.09375 -6.21875 L 2.46875 -13.484375 C 1.90625 -14.316406 1.140625 -14.734375 0.171875 -14.734375 L -0.125 -14.734375 L -0.125 -14.984375 L 5.671875 -14.984375 L 5.671875 -14.734375 L 5.375 -14.734375 C 5.050781 -14.734375 4.816406 -14.628906 4.671875 -14.421875 C 4.535156 -14.222656 4.46875 -14.050781 4.46875 -13.90625 C 4.46875 -13.769531 4.484375 -13.644531 4.515625 -13.53125 L 8.171875 -7.0625 L 12.03125 -13.515625 C 12.082031 -13.640625 12.109375 -13.769531 12.109375 -13.90625 C 12.109375 -14.050781 12.035156 -14.222656 11.890625 -14.421875 C 11.753906 -14.628906 11.519531 -14.734375 11.1875 -14.734375 L 10.890625 -14.734375 L 10.890625 -14.984375 L 16.109375 -14.984375 Z M 16.109375 -14.734375 "/></g></g></g><g fill="#000000" fill-opacity="1"><g transform="translate(179.111116, 179.579689)"><g/></g></g><g fill="#000000" fill-opacity="1"><g transform="translate(185.352377, 179.579689)"><g><path d="M 6.640625 -17.234375 C 6.046875 -17.234375 5.585938 -16.972656 5.265625 -16.453125 C 5.128906 -16.222656 5.054688 -15.957031 5.046875 -15.65625 L 5.046875 0 C 5.046875 1.394531 4.609375 2.578125 3.734375 3.546875 C 2.859375 4.515625 1.78125 5 0.5 5 L 0.5 4.765625 C 1.3125 4.484375 2 3.867188 2.5625 2.921875 C 3.132812 1.984375 3.421875 0.984375 3.421875 -0.078125 L 3.421875 -15.65625 C 3.398438 -16.082031 3.234375 -16.453125 2.921875 -16.765625 C 2.617188 -17.078125 2.253906 -17.234375 1.828125 -17.234375 L 1.5 -17.234375 L 1.5 -17.484375 L 6.96875 -17.484375 L 6.96875 -17.234375 Z M 6.640625 -17.234375 "/></g></g></g><g fill="#000000" fill-opacity="1"><g transform="translate(193.441047, 179.579689)"><g><path d="M 16.609375 -14.734375 L 16.234375 -14.734375 C 15.785156 -14.734375 15.441406 -14.554688 15.203125 -14.203125 C 15.109375 -14.054688 15.050781 -13.882812 15.03125 -13.6875 L 15.03125 -5.265625 C 15.03125 -3.535156 14.472656 -2.164062 13.359375 -1.15625 C 12.253906 -0.15625 10.738281 0.34375 8.8125 0.34375 C 6.882812 0.34375 5.363281 -0.148438 4.25 -1.140625 C 3.132812 -2.140625 2.578125 -3.507812 2.578125 -5.25 L 2.578125 -13.65625 C 2.578125 -13.957031 2.457031 -14.210938 2.21875 -14.421875 C 1.988281 -14.628906 1.707031 -14.734375 1.375 -14.734375 L 1 -14.734375 L 1 -14.984375 L 5.75 -14.984375 L 5.75 -14.734375 L 5.375 -14.734375 C 5.039062 -14.734375 4.753906 -14.628906 4.515625 -14.421875 C 4.285156 -14.210938 4.171875 -13.957031 4.171875 -13.65625 L 4.171875 -5.546875 C 4.171875 -3.929688 4.582031 -2.65625 5.40625 -1.71875 C 6.226562 -0.789062 7.390625 -0.328125 8.890625 -0.328125 C 10.398438 -0.328125 11.609375 -0.765625 12.515625 -1.640625 C 13.421875 -2.523438 13.875 -3.734375 13.875 -5.265625 L 13.875 -13.65625 C 13.863281 -13.96875 13.742188 -14.222656 13.515625 -14.421875 C 13.296875 -14.628906 13.019531 -14.734375 12.6875 -14.734375 L 12.3125 -14.734375 L 12.3125 -14.984375 L 16.609375 -14.984375 Z M 16.609375 -14.734375 "/></g></g></g><g fill="#000000" fill-opacity="1"><g transform="translate(210.916573, 179.579689)"><g><path d="M 18.15625 -14.734375 C 17.789062 -14.734375 17.472656 -14.609375 17.203125 -14.359375 C 16.929688 -14.117188 16.789062 -13.828125 16.78125 -13.484375 L 16.78125 -2.84375 C 16.78125 -1.875 16.835938 -0.957031 16.953125 -0.09375 L 17 0.34375 L 16.78125 0.34375 L 3.796875 -11.953125 L 3.796875 -1.546875 C 3.796875 -1.179688 3.925781 -0.875 4.1875 -0.625 C 4.457031 -0.375 4.785156 -0.25 5.171875 -0.25 L 5.59375 -0.25 L 5.59375 0 L 0.875 0 L 0.875 -0.25 L 1.296875 -0.25 C 1.679688 -0.25 2.003906 -0.375 2.265625 -0.625 C 2.535156 -0.875 2.671875 -1.179688 2.671875 -1.546875 L 2.671875 -12.234375 C 2.671875 -13.253906 2.613281 -14.160156 2.5 -14.953125 L 2.453125 -15.359375 L 2.71875 -15.328125 L 15.6875 -3.125 L 15.6875 -13.484375 C 15.644531 -13.828125 15.488281 -14.117188 15.21875 -14.359375 C 14.957031 -14.609375 14.644531 -14.734375 14.28125 -14.734375 L 13.859375 -14.734375 L 13.859375 -14.984375 L 18.578125 -14.984375 L 18.578125 -14.734375 Z M 18.15625 -14.734375 "/></g></g></g><g fill="#000000" fill-opacity="1"><g transform="translate(230.364337, 179.579689)"><g><path d="M 9.484375 0.34375 C 6.941406 0.332031 4.929688 -0.367188 3.453125 -1.765625 C 1.984375 -3.171875 1.25 -5.082031 1.25 -7.5 C 1.25 -9.925781 1.984375 -11.835938 3.453125 -13.234375 C 4.929688 -14.628906 6.941406 -15.328125 9.484375 -15.328125 C 10.515625 -15.328125 11.554688 -15.191406 12.609375 -14.921875 C 13.660156 -14.660156 14.566406 -14.296875 15.328125 -13.828125 L 15.875 -10.28125 L 15.65625 -10.28125 C 14.9375 -13.144531 12.875 -14.578125 9.46875 -14.578125 C 7.476562 -14.578125 5.910156 -13.941406 4.765625 -12.671875 C 3.617188 -11.410156 3.046875 -9.679688 3.046875 -7.484375 C 3.046875 -6.054688 3.300781 -4.8125 3.8125 -3.75 C 4.332031 -2.695312 5.082031 -1.878906 6.0625 -1.296875 C 7.050781 -0.710938 8.191406 -0.421875 9.484375 -0.421875 C 10.785156 -0.421875 11.921875 -0.613281 12.890625 -1 C 13.867188 -1.394531 14.675781 -2.039062 15.3125 -2.9375 C 15.957031 -3.84375 16.320312 -4.960938 16.40625 -6.296875 L 16.625 -6.296875 L 16.359375 -2.875 C 15.703125 -1.875 14.757812 -1.085938 13.53125 -0.515625 C 12.300781 0.0546875 10.953125 0.34375 9.484375 0.34375 Z M 9.484375 0.34375 "/></g></g></g><g fill="#000000" fill-opacity="1"><g transform="translate(247.964692, 179.579689)"><g><path d="M 8.046875 -14.25 L 8.046875 -1.578125 C 8.054688 -1.054688 8.300781 -0.671875 8.78125 -0.421875 C 9 -0.304688 9.242188 -0.25 9.515625 -0.25 L 9.78125 -0.25 L 9.78125 0 L 4.640625 0 L 4.640625 -0.25 L 4.9375 -0.25 C 5.34375 -0.25 5.6875 -0.378906 5.96875 -0.640625 C 6.25 -0.910156 6.398438 -1.226562 6.421875 -1.59375 L 6.421875 -14.25 L 1.890625 -14.25 C 1.515625 -14.25 1.210938 -14.125 0.984375 -13.875 C 0.765625 -13.632812 0.65625 -13.335938 0.65625 -12.984375 L 0.65625 -12.578125 L 0.375 -12.578125 L 0.375 -15.40625 C 0.707031 -15.269531 1.175781 -15.164062 1.78125 -15.09375 C 2.394531 -15.03125 2.847656 -15 3.140625 -15 L 11.28125 -15 C 12.476562 -15 13.410156 -15.132812 14.078125 -15.40625 L 14.078125 -12.578125 L 13.8125 -12.578125 L 13.8125 -12.984375 C 13.8125 -13.335938 13.691406 -13.632812 13.453125 -13.875 C 13.222656 -14.125 12.925781 -14.25 12.5625 -14.25 Z M 8.046875 -14.25 "/></g></g></g><g fill="#000000" fill-opacity="1"><g transform="translate(262.394481, 179.579689)"><g><path d="M 1.71875 -0.25 C 2.164062 -0.25 2.554688 -0.378906 2.890625 -0.640625 C 3.222656 -0.910156 3.390625 -1.226562 3.390625 -1.59375 L 3.390625 -13.390625 C 3.390625 -13.753906 3.222656 -14.066406 2.890625 -14.328125 C 2.554688 -14.597656 2.160156 -14.734375 1.703125 -14.734375 L 1.375 -14.734375 L 1.375 -14.984375 L 7.015625 -14.984375 L 7.015625 -14.734375 L 6.6875 -14.734375 C 6.238281 -14.734375 5.851562 -14.609375 5.53125 -14.359375 C 5.207031 -14.109375 5.03125 -13.800781 5 -13.4375 L 5 -1.578125 C 5.007812 -1.210938 5.179688 -0.898438 5.515625 -0.640625 C 5.847656 -0.378906 6.238281 -0.25 6.6875 -0.25 L 7.015625 -0.25 L 7.046875 0 L 1.375 0 L 1.375 -0.25 Z M 1.71875 -0.25 "/></g></g></g><g fill="#000000" fill-opacity="1"><g transform="translate(270.782738, 179.579689)"><g><path d="M 5.4375 -14.34375 C 6.71875 -15 8.128906 -15.328125 9.671875 -15.328125 C 11.210938 -15.328125 12.625 -15 13.90625 -14.34375 C 15.1875 -13.6875 16.207031 -12.757812 16.96875 -11.5625 C 17.726562 -10.363281 18.109375 -9.003906 18.109375 -7.484375 C 18.109375 -5.972656 17.726562 -4.617188 16.96875 -3.421875 C 16.207031 -2.222656 15.1875 -1.296875 13.90625 -0.640625 C 12.625 0.015625 11.304688 0.34375 9.953125 0.34375 C 8.609375 0.34375 7.421875 0.15625 6.390625 -0.21875 C 5.359375 -0.601562 4.460938 -1.132812 3.703125 -1.8125 C 2.953125 -2.5 2.351562 -3.332031 1.90625 -4.3125 C 1.46875 -5.300781 1.25 -6.457031 1.25 -7.78125 C 1.25 -9.101562 1.625 -10.363281 2.375 -11.5625 C 3.132812 -12.757812 4.15625 -13.6875 5.4375 -14.34375 Z M 4.96875 -2.390625 C 6.226562 -1.066406 7.789062 -0.40625 9.65625 -0.40625 C 11.519531 -0.40625 13.082031 -1.066406 14.34375 -2.390625 C 15.613281 -3.710938 16.25 -5.410156 16.25 -7.484375 C 16.25 -9.566406 15.613281 -11.269531 14.34375 -12.59375 C 13.082031 -13.914062 11.519531 -14.578125 9.65625 -14.578125 C 7.789062 -14.578125 6.226562 -13.914062 4.96875 -12.59375 C 3.71875 -11.269531 3.09375 -9.566406 3.09375 -7.484375 C 3.09375 -5.410156 3.71875 -3.710938 4.96875 -2.390625 Z M 4.96875 -2.390625 "/></g></g></g><g fill="#000000" fill-opacity="1"><g transform="translate(290.105684, 179.579689)"><g><path d="M 18.15625 -14.734375 C 17.789062 -14.734375 17.472656 -14.609375 17.203125 -14.359375 C 16.929688 -14.117188 16.789062 -13.828125 16.78125 -13.484375 L 16.78125 -2.84375 C 16.78125 -1.875 16.835938 -0.957031 16.953125 -0.09375 L 17 0.34375 L 16.78125 0.34375 L 3.796875 -11.953125 L 3.796875 -1.546875 C 3.796875 -1.179688 3.925781 -0.875 4.1875 -0.625 C 4.457031 -0.375 4.785156 -0.25 5.171875 -0.25 L 5.59375 -0.25 L 5.59375 0 L 0.875 0 L 0.875 -0.25 L 1.296875 -0.25 C 1.679688 -0.25 2.003906 -0.375 2.265625 -0.625 C 2.535156 -0.875 2.671875 -1.179688 2.671875 -1.546875 L 2.671875 -12.234375 C 2.671875 -13.253906 2.613281 -14.160156 2.5 -14.953125 L 2.453125 -15.359375 L 2.71875 -15.328125 L 15.6875 -3.125 L 15.6875 -13.484375 C 15.644531 -13.828125 15.488281 -14.117188 15.21875 -14.359375 C 14.957031 -14.609375 14.644531 -14.734375 14.28125 -14.734375 L 13.859375 -14.734375 L 13.859375 -14.984375 L 18.578125 -14.984375 L 18.578125 -14.734375 Z M 18.15625 -14.734375 "/></g></g></g><g clip-path="url(#177fde1884)"><path fill="#f7591f" d="M 190.71875 151.890625 L 193.683594 155.585938 L 189.988281 152.621094 L 189.425781 161.980469 L 188.867188 152.621094 L 185.167969 155.585938 L 188.132812 151.890625 L 178.773438 151.328125 L 188.132812 150.769531 L 185.167969 147.070312 L 188.867188 150.035156 L 189.425781 140.675781 L 189.988281 150.035156 L 193.683594 147.070312 L 190.71875 150.769531 L 200.078125 151.328125 Z M 190.71875 151.890625 " fill-opacity="1" fill-rule="nonzero"/></g><g clip-path="url(#8c3a842a34)"><path fill="#000000" d="M 72.71875 170.242188 L 74.535156 172.507812 L 72.269531 170.691406 L 71.925781 176.425781 L 71.582031 170.691406 L 69.316406 172.507812 L 71.132812 170.242188 L 65.398438 169.898438 L 71.132812 169.554688 L 69.316406 167.289062 L 71.582031 169.105469 L 71.925781 163.371094 L 72.269531 169.105469 L 74.535156 167.289062 L 72.71875 169.554688 L 78.453125 169.898438 Z M 72.71875 170.242188 " fill-opacity="1" fill-rule="nonzero"/></g></svg>