<svg xmlns="http://www.w3.org/2000/svg" xmlns:xlink="http://www.w3.org/1999/xlink" width="500" zoomAndPan="magnify" viewBox="0 0 375 374.999991" height="500" preserveAspectRatio="xMidYMid meet" version="1.0"><defs><g/><clipPath id="dd705f0b80"><path d="M 187.039062 100.3125 L 213.289062 100.3125 L 213.289062 126.5625 L 187.039062 126.5625 Z M 187.039062 100.3125 " clip-rule="nonzero"/></clipPath><clipPath id="93529c86d1"><path d="M 151.429688 185.09375 L 170.929688 185.09375 L 170.929688 204.59375 L 151.429688 204.59375 Z M 151.429688 185.09375 " clip-rule="nonzero"/></clipPath></defs><g fill="#ffffff" fill-opacity="1"><g transform="translate(177.052654, 225.507522)"><g><path d="M -10.828125 18.515625 C -8.359375 19.335938 -5.910156 19.75 -3.484375 19.75 C -1.066406 19.75 1.460938 19.242188 4.109375 18.234375 C 6.765625 17.234375 9.191406 15.660156 11.390625 13.515625 C 13.585938 11.367188 15.394531 8.144531 16.8125 3.84375 C 18.226562 -0.457031 18.9375 -5.535156 18.9375 -11.390625 L 18.9375 -86.03125 C 18.84375 -88.40625 17.945312 -90.4375 16.25 -92.125 C 14.5625 -93.820312 12.53125 -94.671875 10.15625 -94.671875 L 8.375 -94.671875 L 8.375 -96.046875 L 38.421875 -96.046875 L 38.421875 -94.671875 L 36.640625 -94.671875 C 34.253906 -94.671875 32.21875 -93.847656 30.53125 -92.203125 C 28.84375 -90.554688 27.953125 -88.5 27.859375 -86.03125 L 27.859375 -10.96875 C 27.859375 -4.75 26.894531 0.6875 24.96875 5.34375 C 23.050781 10.007812 20.628906 13.535156 17.703125 15.921875 C 12.210938 20.210938 6.128906 22.359375 -0.546875 22.359375 C -4.472656 22.359375 -8.085938 21.582031 -11.390625 20.03125 Z M -10.828125 18.515625 "/></g></g></g><g fill="#f7591f" fill-opacity="1"><g transform="translate(156.623944, 236.11847)"><g><path d="M -10 17.09375 C -7.726562 17.851562 -5.472656 18.234375 -3.234375 18.234375 C -0.992188 18.234375 1.347656 17.769531 3.796875 16.84375 C 6.242188 15.914062 8.476562 14.457031 10.5 12.46875 C 12.53125 10.488281 14.195312 7.515625 15.5 3.546875 C 16.8125 -0.421875 17.46875 -5.109375 17.46875 -10.515625 L 17.46875 -79.390625 C 17.382812 -81.585938 16.5625 -83.46875 15 -85.03125 C 13.4375 -86.59375 11.5625 -87.375 9.375 -87.375 L 7.71875 -87.375 L 7.71875 -88.640625 L 35.453125 -88.640625 L 35.453125 -87.375 L 33.8125 -87.375 C 31.613281 -87.375 29.734375 -86.613281 28.171875 -85.09375 C 26.609375 -83.570312 25.785156 -81.671875 25.703125 -79.390625 L 25.703125 -10.125 C 25.703125 -4.382812 24.816406 0.632812 23.046875 4.9375 C 21.273438 9.238281 19.035156 12.488281 16.328125 14.6875 C 11.265625 18.65625 5.648438 20.640625 -0.515625 20.640625 C -4.140625 20.640625 -7.472656 19.921875 -10.515625 18.484375 Z M -10 17.09375 "/></g></g></g><g clip-path="url(#dd705f0b80)"><path fill="#f7591f" d="M 201.914062 114.277344 L 205.609375 118.878906 L 201.003906 115.1875 L 200.304688 126.84375 L 199.605469 115.1875 L 195.003906 118.878906 L 198.695312 114.277344 L 187.039062 113.578125 L 198.695312 112.878906 L 195.003906 108.273438 L 199.605469 111.964844 L 200.304688 100.3125 L 201.003906 111.964844 L 205.609375 108.273438 L 201.914062 112.878906 L 213.570312 113.578125 Z M 201.914062 114.277344 " fill-opacity="1" fill-rule="nonzero"/></g><g clip-path="url(#93529c86d1)"><path fill="#ffffff" d="M 162.1875 195.191406 L 164.855469 198.519531 L 161.527344 195.847656 L 161.023438 204.277344 L 160.515625 195.847656 L 157.1875 198.519531 L 159.859375 195.191406 L 151.429688 194.683594 L 159.859375 194.179688 L 157.1875 190.851562 L 160.515625 193.519531 L 161.023438 185.09375 L 161.527344 193.519531 L 164.855469 190.851562 L 162.1875 194.179688 L 170.613281 194.683594 Z M 162.1875 195.191406 " fill-opacity="1" fill-rule="nonzero"/></g></svg>