<svg xmlns="http://www.w3.org/2000/svg" xmlns:xlink="http://www.w3.org/1999/xlink" width="500" zoomAndPan="magnify" viewBox="0 0 375 374.999991" height="500" preserveAspectRatio="xMidYMid meet" version="1.0"><defs><g/><clipPath id="3027ad40a5"><path d="M 175.253906 121.863281 L 205.253906 121.863281 L 205.253906 151.863281 L 175.253906 151.863281 Z M 175.253906 121.863281 " clip-rule="nonzero"/></clipPath><clipPath id="1400d640c1"><path d="M 16.324219 153.679688 L 34.324219 153.679688 L 34.324219 171.679688 L 16.324219 171.679688 Z M 16.324219 153.679688 " clip-rule="nonzero"/></clipPath></defs><g fill="#f7591f" fill-opacity="1"><g transform="translate(31.607263, 176.397294)"><g><path d="M 9.3125 -24.15625 C 8.46875 -24.15625 7.828125 -23.796875 7.390625 -23.078125 C 7.203125 -22.742188 7.097656 -22.367188 7.078125 -21.953125 L 7.078125 0 C 7.078125 1.957031 6.460938 3.613281 5.234375 4.96875 C 4.003906 6.320312 2.492188 7 0.703125 7 L 0.703125 6.6875 C 1.847656 6.289062 2.816406 5.429688 3.609375 4.109375 C 4.398438 2.796875 4.796875 1.390625 4.796875 -0.109375 L 4.796875 -21.953125 C 4.773438 -22.554688 4.546875 -23.070312 4.109375 -23.5 C 3.679688 -23.9375 3.164062 -24.15625 2.5625 -24.15625 L 2.09375 -24.15625 L 2.09375 -24.515625 L 9.765625 -24.515625 L 9.765625 -24.15625 Z M 9.3125 -24.15625 "/></g></g></g><g fill="#ffffff" fill-opacity="1"><g transform="translate(42.951818, 176.397294)"><g><path d="M 2.421875 -0.34375 C 2.972656 -0.34375 3.441406 -0.523438 3.828125 -0.890625 C 4.210938 -1.253906 4.421875 -1.691406 4.453125 -2.203125 L 4.453125 -18.84375 C 4.453125 -19.351562 4.25 -19.78125 3.84375 -20.125 C 3.445312 -20.476562 2.972656 -20.65625 2.421875 -20.65625 L 1.921875 -20.65625 L 1.921875 -21.015625 L 12.15625 -21.015625 C 13.113281 -21.015625 13.953125 -21.082031 14.671875 -21.21875 C 15.390625 -21.351562 15.859375 -21.46875 16.078125 -21.5625 L 16.078125 -17.578125 L 15.6875 -17.609375 L 15.6875 -18.140625 C 15.6875 -18.628906 15.519531 -19.046875 15.1875 -19.390625 C 14.863281 -19.742188 14.445312 -19.921875 13.9375 -19.921875 L 6.65625 -19.921875 L 6.65625 -11.03125 L 12.640625 -11.03125 C 13.109375 -11.03125 13.460938 -11.171875 13.703125 -11.453125 C 13.953125 -11.734375 14.078125 -12.082031 14.078125 -12.5 L 14.078125 -12.953125 L 14.46875 -12.953125 L 14.46875 -8.046875 L 14.078125 -8.046875 L 14.078125 -8.515625 C 14.078125 -9.160156 13.832031 -9.601562 13.34375 -9.84375 C 13.15625 -9.90625 12.957031 -9.953125 12.75 -9.984375 L 6.65625 -9.984375 L 6.65625 -1.078125 L 12.15625 -1.078125 C 13.226562 -1.078125 14.128906 -1.265625 14.859375 -1.640625 C 15.597656 -2.015625 16.160156 -2.457031 16.546875 -2.96875 C 16.929688 -3.488281 17.320312 -4.164062 17.71875 -5 L 18.0625 -5 L 16.140625 0 L 1.921875 0 L 1.921875 -0.34375 Z M 2.421875 -0.34375 "/></g></g></g><g fill="#ffffff" fill-opacity="1"><g transform="translate(62.059302, 176.397294)"><g><path d="M 31.65625 -20.65625 L 31.40625 -20.65625 C 30.007812 -20.65625 29.050781 -19.96875 28.53125 -18.59375 L 23.453125 -3.46875 C 22.941406 -2 22.675781 -0.703125 22.65625 0.421875 L 22.3125 0.421875 L 15.796875 -16.25 L 11.234375 -3.46875 C 10.773438 -2.019531 10.519531 -0.722656 10.46875 0.421875 L 10.15625 0.421875 L 2.796875 -18.734375 C 2.265625 -20.015625 1.332031 -20.65625 0 -20.65625 L -0.28125 -20.65625 L -0.28125 -21.015625 L 6.9375 -21.015625 L 6.9375 -20.65625 L 6.65625 -20.65625 C 6.226562 -20.65625 5.90625 -20.523438 5.6875 -20.265625 C 5.46875 -20.015625 5.359375 -19.757812 5.359375 -19.5 C 5.359375 -19.25 5.394531 -19.003906 5.46875 -18.765625 L 10.125 -4.515625 L 16.03125 -21.5625 L 16.390625 -21.53125 L 22.65625 -5.5625 L 26.578125 -18.5625 C 26.691406 -18.882812 26.75 -19.171875 26.75 -19.421875 C 26.75 -19.679688 26.65625 -19.953125 26.46875 -20.234375 C 26.28125 -20.515625 25.96875 -20.65625 25.53125 -20.65625 L 25.25 -20.65625 L 25.25 -21.015625 L 31.65625 -21.015625 Z M 31.65625 -20.65625 "/></g></g></g><g fill="#ffffff" fill-opacity="1"><g transform="translate(93.520168, 176.397294)"><g><path d="M 2.421875 -0.34375 C 2.972656 -0.34375 3.441406 -0.523438 3.828125 -0.890625 C 4.210938 -1.253906 4.421875 -1.691406 4.453125 -2.203125 L 4.453125 -18.84375 C 4.453125 -19.351562 4.25 -19.78125 3.84375 -20.125 C 3.445312 -20.476562 2.972656 -20.65625 2.421875 -20.65625 L 1.921875 -20.65625 L 1.921875 -21.015625 L 12.15625 -21.015625 C 13.113281 -21.015625 13.953125 -21.082031 14.671875 -21.21875 C 15.390625 -21.351562 15.859375 -21.46875 16.078125 -21.5625 L 16.078125 -17.578125 L 15.6875 -17.609375 L 15.6875 -18.140625 C 15.6875 -18.628906 15.519531 -19.046875 15.1875 -19.390625 C 14.863281 -19.742188 14.445312 -19.921875 13.9375 -19.921875 L 6.65625 -19.921875 L 6.65625 -11.03125 L 12.640625 -11.03125 C 13.109375 -11.03125 13.460938 -11.171875 13.703125 -11.453125 C 13.953125 -11.734375 14.078125 -12.082031 14.078125 -12.5 L 14.078125 -12.953125 L 14.46875 -12.953125 L 14.46875 -8.046875 L 14.078125 -8.046875 L 14.078125 -8.515625 C 14.078125 -9.160156 13.832031 -9.601562 13.34375 -9.84375 C 13.15625 -9.90625 12.957031 -9.953125 12.75 -9.984375 L 6.65625 -9.984375 L 6.65625 -1.078125 L 12.15625 -1.078125 C 13.226562 -1.078125 14.128906 -1.265625 14.859375 -1.640625 C 15.597656 -2.015625 16.160156 -2.457031 16.546875 -2.96875 C 16.929688 -3.488281 17.320312 -4.164062 17.71875 -5 L 18.0625 -5 L 16.140625 0 L 1.921875 0 L 1.921875 -0.34375 Z M 2.421875 -0.34375 "/></g></g></g><g fill="#ffffff" fill-opacity="1"><g transform="translate(112.627653, 176.397294)"><g><path d="M 2.421875 -0.34375 C 2.972656 -0.34375 3.441406 -0.523438 3.828125 -0.890625 C 4.210938 -1.253906 4.421875 -1.691406 4.453125 -2.203125 L 4.453125 -18.765625 C 4.421875 -19.273438 4.203125 -19.71875 3.796875 -20.09375 C 3.390625 -20.46875 2.90625 -20.65625 2.34375 -20.65625 L 1.921875 -20.65625 L 1.921875 -21.015625 L 9.171875 -21.015625 L 9.171875 -20.65625 L 8.75 -20.65625 C 8.1875 -20.65625 7.703125 -20.46875 7.296875 -20.09375 C 6.890625 -19.71875 6.6875 -19.273438 6.6875 -18.765625 L 6.6875 -1.078125 L 12.15625 -1.078125 C 13.226562 -1.078125 14.132812 -1.265625 14.875 -1.640625 C 15.625 -2.015625 16.191406 -2.457031 16.578125 -2.96875 C 16.960938 -3.488281 17.34375 -4.164062 17.71875 -5 L 18.0625 -5 L 16.140625 0 L 1.921875 0 L 1.921875 -0.34375 Z M 2.421875 -0.34375 "/></g></g></g><g fill="#ffffff" fill-opacity="1"><g transform="translate(131.385188, 176.397294)"><g><path d="M 8.46875 -19.921875 L 6.625 -19.921875 L 6.625 -2.234375 C 6.644531 -1.515625 6.96875 -0.96875 7.59375 -0.59375 C 7.894531 -0.425781 8.234375 -0.34375 8.609375 -0.34375 L 9.0625 -0.34375 L 9.109375 0 L 1.921875 0 L 1.921875 -0.34375 L 2.421875 -0.34375 C 2.953125 -0.34375 3.410156 -0.523438 3.796875 -0.890625 C 4.179688 -1.253906 4.375 -1.691406 4.375 -2.203125 L 4.375 -18.84375 C 4.375 -19.351562 4.179688 -19.78125 3.796875 -20.125 C 3.410156 -20.476562 2.953125 -20.65625 2.421875 -20.65625 L 1.921875 -20.65625 L 1.921875 -21.015625 L 10.71875 -21.015625 C 12.90625 -21.015625 14.632812 -20.507812 15.90625 -19.5 C 17.1875 -18.5 17.828125 -17.179688 17.828125 -15.546875 C 17.828125 -13.910156 17.3125 -12.539062 16.28125 -11.4375 C 15.25 -10.34375 13.941406 -9.71875 12.359375 -9.5625 C 13.109375 -9.226562 14.007812 -8.316406 15.0625 -6.828125 C 15.03125 -6.828125 15.425781 -6.3125 16.25 -5.28125 C 17.082031 -4.257812 17.75 -3.460938 18.25 -2.890625 C 18.757812 -2.316406 19.175781 -1.878906 19.5 -1.578125 C 20.363281 -0.753906 21.359375 -0.34375 22.484375 -0.34375 L 22.484375 0 L 21.390625 0 C 19.546875 0 18.097656 -0.359375 17.046875 -1.078125 C 16.253906 -1.617188 15.53125 -2.285156 14.875 -3.078125 C 14.738281 -3.265625 14.148438 -4.085938 13.109375 -5.546875 C 12.078125 -7.003906 11.523438 -7.78125 11.453125 -7.875 C 10.191406 -9.4375 9.007812 -10.21875 7.90625 -10.21875 L 7.90625 -10.578125 C 10.644531 -10.578125 12.289062 -10.71875 12.84375 -11 C 13.613281 -11.394531 14.140625 -11.8125 14.421875 -12.25 C 15.003906 -13.1875 15.296875 -14.21875 15.296875 -15.34375 C 15.296875 -16.757812 14.875 -17.851562 14.03125 -18.625 C 13.195312 -19.394531 12.066406 -19.816406 10.640625 -19.890625 C 10.015625 -19.910156 9.289062 -19.921875 8.46875 -19.921875 Z M 8.46875 -19.921875 "/></g></g></g><g fill="#ffffff" fill-opacity="1"><g transform="translate(153.327298, 176.397294)"><g><path d="M 22.578125 -20.65625 L 22.171875 -20.65625 C 21.535156 -20.65625 20.929688 -20.484375 20.359375 -20.140625 C 19.785156 -19.804688 19.3125 -19.382812 18.9375 -18.875 L 12.21875 -8.6875 L 12.21875 -2.234375 C 12.21875 -1.722656 12.414062 -1.28125 12.8125 -0.90625 C 13.207031 -0.53125 13.6875 -0.34375 14.25 -0.34375 L 14.671875 -0.34375 L 14.671875 0 L 7.5 0 L 7.5 -0.34375 L 7.90625 -0.34375 C 8.46875 -0.34375 8.945312 -0.53125 9.34375 -0.90625 C 9.738281 -1.28125 9.9375 -1.722656 9.9375 -2.234375 L 9.9375 -8.71875 L 3.46875 -18.90625 C 2.675781 -20.070312 1.601562 -20.65625 0.25 -20.65625 L -0.171875 -20.65625 L -0.171875 -21.015625 L 7.953125 -21.015625 L 7.953125 -20.65625 L 7.53125 -20.65625 C 7.082031 -20.65625 6.757812 -20.515625 6.5625 -20.234375 C 6.363281 -19.953125 6.265625 -19.710938 6.265625 -19.515625 C 6.265625 -19.316406 6.289062 -19.140625 6.34375 -18.984375 L 11.453125 -9.90625 L 16.875 -18.9375 C 16.945312 -19.125 16.984375 -19.316406 16.984375 -19.515625 C 16.984375 -19.710938 16.882812 -19.953125 16.6875 -20.234375 C 16.488281 -20.515625 16.15625 -20.65625 15.6875 -20.65625 L 15.265625 -20.65625 L 15.265625 -21.015625 L 22.578125 -21.015625 Z M 22.578125 -20.65625 "/></g></g></g><g fill="#ffffff" fill-opacity="1"><g transform="translate(175.724351, 176.397294)"><g/></g></g><g fill="#ffffff" fill-opacity="1"><g transform="translate(184.473202, 176.397294)"><g><path d="M 9.3125 -24.15625 C 8.46875 -24.15625 7.828125 -23.796875 7.390625 -23.078125 C 7.203125 -22.742188 7.097656 -22.367188 7.078125 -21.953125 L 7.078125 0 C 7.078125 1.957031 6.460938 3.613281 5.234375 4.96875 C 4.003906 6.320312 2.492188 7 0.703125 7 L 0.703125 6.6875 C 1.847656 6.289062 2.816406 5.429688 3.609375 4.109375 C 4.398438 2.796875 4.796875 1.390625 4.796875 -0.109375 L 4.796875 -21.953125 C 4.773438 -22.554688 4.546875 -23.070312 4.109375 -23.5 C 3.679688 -23.9375 3.164062 -24.15625 2.5625 -24.15625 L 2.09375 -24.15625 L 2.09375 -24.515625 L 9.765625 -24.515625 L 9.765625 -24.15625 Z M 9.3125 -24.15625 "/></g></g></g><g fill="#ffffff" fill-opacity="1"><g transform="translate(195.811708, 176.397294)"><g><path d="M 23.28125 -20.65625 L 22.765625 -20.65625 C 22.128906 -20.65625 21.648438 -20.410156 21.328125 -19.921875 C 21.179688 -19.710938 21.097656 -19.46875 21.078125 -19.1875 L 21.078125 -7.390625 C 21.078125 -4.960938 20.300781 -3.039062 18.75 -1.625 C 17.195312 -0.21875 15.066406 0.484375 12.359375 0.484375 C 9.648438 0.484375 7.515625 -0.210938 5.953125 -1.609375 C 4.390625 -3.015625 3.609375 -4.929688 3.609375 -7.359375 L 3.609375 -19.15625 C 3.609375 -19.570312 3.441406 -19.925781 3.109375 -20.21875 C 2.785156 -20.507812 2.390625 -20.65625 1.921875 -20.65625 L 1.40625 -20.65625 L 1.40625 -21.015625 L 8.046875 -21.015625 L 8.046875 -20.65625 L 7.53125 -20.65625 C 7.0625 -20.65625 6.660156 -20.507812 6.328125 -20.21875 C 6.003906 -19.925781 5.84375 -19.570312 5.84375 -19.15625 L 5.84375 -7.78125 C 5.84375 -5.507812 6.421875 -3.71875 7.578125 -2.40625 C 8.734375 -1.101562 10.367188 -0.453125 12.484375 -0.453125 C 14.597656 -0.453125 16.289062 -1.070312 17.5625 -2.3125 C 18.832031 -3.550781 19.46875 -5.242188 19.46875 -7.390625 L 19.46875 -19.15625 C 19.445312 -19.59375 19.273438 -19.953125 18.953125 -20.234375 C 18.640625 -20.515625 18.25 -20.65625 17.78125 -20.65625 L 17.265625 -20.65625 L 17.265625 -21.015625 L 23.28125 -21.015625 Z M 23.28125 -20.65625 "/></g></g></g><g fill="#ffffff" fill-opacity="1"><g transform="translate(220.308486, 176.397294)"><g><path d="M 25.453125 -20.65625 C 24.941406 -20.65625 24.5 -20.484375 24.125 -20.140625 C 23.75 -19.804688 23.550781 -19.394531 23.53125 -18.90625 L 23.53125 -3.984375 C 23.53125 -2.628906 23.613281 -1.347656 23.78125 -0.140625 L 23.84375 0.484375 L 23.53125 0.484375 L 5.328125 -16.765625 L 5.328125 -2.171875 C 5.328125 -1.660156 5.507812 -1.226562 5.875 -0.875 C 6.25 -0.519531 6.707031 -0.34375 7.25 -0.34375 L 7.84375 -0.34375 L 7.84375 0 L 1.21875 0 L 1.21875 -0.34375 L 1.828125 -0.34375 C 2.359375 -0.34375 2.8125 -0.519531 3.1875 -0.875 C 3.5625 -1.226562 3.75 -1.660156 3.75 -2.171875 L 3.75 -17.15625 C 3.75 -18.582031 3.664062 -19.851562 3.5 -20.96875 L 3.4375 -21.53125 L 3.8125 -21.5 L 21.984375 -4.375 L 21.984375 -18.90625 C 21.941406 -19.394531 21.734375 -19.804688 21.359375 -20.140625 C 20.984375 -20.484375 20.539062 -20.65625 20.03125 -20.65625 L 19.4375 -20.65625 L 19.4375 -21.015625 L 26.046875 -21.015625 L 26.046875 -20.65625 Z M 25.453125 -20.65625 "/></g></g></g><g fill="#ffffff" fill-opacity="1"><g transform="translate(247.569902, 176.397294)"><g><path d="M 13.3125 0.484375 C 9.738281 0.460938 6.914062 -0.523438 4.84375 -2.484375 C 2.78125 -4.441406 1.75 -7.117188 1.75 -10.515625 C 1.75 -13.910156 2.78125 -16.585938 4.84375 -18.546875 C 6.914062 -20.515625 9.738281 -21.5 13.3125 -21.5 C 14.757812 -21.5 16.21875 -21.3125 17.6875 -20.9375 C 19.15625 -20.5625 20.425781 -20.050781 21.5 -19.40625 L 22.265625 -14.421875 L 21.953125 -14.421875 C 20.953125 -18.441406 18.054688 -20.453125 13.265625 -20.453125 C 10.492188 -20.453125 8.300781 -19.5625 6.6875 -17.78125 C 5.070312 -16.007812 4.265625 -13.582031 4.265625 -10.5 C 4.265625 -8.5 4.625 -6.753906 5.34375 -5.265625 C 6.070312 -3.785156 7.128906 -2.640625 8.515625 -1.828125 C 9.890625 -1.003906 11.484375 -0.59375 13.296875 -0.59375 C 15.117188 -0.59375 16.710938 -0.863281 18.078125 -1.40625 C 19.453125 -1.957031 20.585938 -2.863281 21.484375 -4.125 C 22.378906 -5.382812 22.882812 -6.953125 23 -8.828125 L 23.328125 -8.828125 L 22.9375 -4.03125 C 22.019531 -2.625 20.695312 -1.519531 18.96875 -0.71875 C 17.25 0.0820312 15.363281 0.484375 13.3125 0.484375 Z M 13.3125 0.484375 "/></g></g></g><g fill="#ffffff" fill-opacity="1"><g transform="translate(272.241662, 176.397294)"><g><path d="M 11.28125 -20 L 11.28125 -2.203125 C 11.300781 -1.484375 11.648438 -0.945312 12.328125 -0.59375 C 12.628906 -0.425781 12.96875 -0.34375 13.34375 -0.34375 L 13.71875 -0.34375 L 13.71875 0 L 6.515625 0 L 6.515625 -0.34375 L 6.9375 -0.34375 C 7.5 -0.34375 7.976562 -0.53125 8.375 -0.90625 C 8.769531 -1.28125 8.976562 -1.722656 9 -2.234375 L 9 -20 L 2.65625 -20 C 2.125 -20 1.695312 -19.820312 1.375 -19.46875 C 1.0625 -19.113281 0.90625 -18.691406 0.90625 -18.203125 L 0.90625 -17.640625 L 0.53125 -17.640625 L 0.53125 -21.609375 C 0.988281 -21.421875 1.644531 -21.28125 2.5 -21.1875 C 3.351562 -21.09375 3.988281 -21.046875 4.40625 -21.046875 L 15.828125 -21.046875 C 17.503906 -21.046875 18.8125 -21.234375 19.75 -21.609375 L 19.75 -17.640625 L 19.359375 -17.640625 L 19.359375 -18.203125 C 19.359375 -18.691406 19.195312 -19.113281 18.875 -19.46875 C 18.550781 -19.820312 18.128906 -20 17.609375 -20 Z M 11.28125 -20 "/></g></g></g><g fill="#ffffff" fill-opacity="1"><g transform="translate(292.468999, 176.397294)"><g><path d="M 2.421875 -0.34375 C 3.046875 -0.34375 3.59375 -0.53125 4.0625 -0.90625 C 4.53125 -1.28125 4.765625 -1.722656 4.765625 -2.234375 L 4.765625 -18.765625 C 4.765625 -19.273438 4.53125 -19.71875 4.0625 -20.09375 C 3.59375 -20.46875 3.03125 -20.65625 2.375 -20.65625 L 1.921875 -20.65625 L 1.921875 -21.015625 L 9.84375 -21.015625 L 9.84375 -20.65625 L 9.390625 -20.65625 C 8.753906 -20.65625 8.207031 -20.476562 7.75 -20.125 C 7.300781 -19.78125 7.050781 -19.351562 7 -18.84375 L 7 -2.203125 C 7.019531 -1.691406 7.265625 -1.253906 7.734375 -0.890625 C 8.203125 -0.523438 8.753906 -0.34375 9.390625 -0.34375 L 9.84375 -0.34375 L 9.875 0 L 1.921875 0 L 1.921875 -0.34375 Z M 2.421875 -0.34375 "/></g></g></g><g fill="#ffffff" fill-opacity="1"><g transform="translate(304.227459, 176.397294)"><g><path d="M 7.625 -20.109375 C 9.425781 -21.035156 11.40625 -21.5 13.5625 -21.5 C 15.726562 -21.5 17.707031 -21.035156 19.5 -20.109375 C 21.300781 -19.191406 22.734375 -17.890625 23.796875 -16.203125 C 24.859375 -14.523438 25.390625 -12.625 25.390625 -10.5 C 25.390625 -8.375 24.859375 -6.472656 23.796875 -4.796875 C 22.734375 -3.117188 21.300781 -1.816406 19.5 -0.890625 C 17.707031 0.0234375 15.863281 0.484375 13.96875 0.484375 C 12.082031 0.484375 10.414062 0.21875 8.96875 -0.3125 C 7.519531 -0.851562 6.265625 -1.597656 5.203125 -2.546875 C 4.140625 -3.503906 3.296875 -4.671875 2.671875 -6.046875 C 2.054688 -7.429688 1.75 -9.050781 1.75 -10.90625 C 1.75 -12.757812 2.28125 -14.523438 3.34375 -16.203125 C 4.40625 -17.890625 5.832031 -19.191406 7.625 -20.109375 Z M 6.984375 -3.34375 C 8.742188 -1.488281 10.929688 -0.5625 13.546875 -0.5625 C 16.160156 -0.5625 18.351562 -1.488281 20.125 -3.34375 C 21.90625 -5.195312 22.796875 -7.582031 22.796875 -10.5 C 22.796875 -13.414062 21.90625 -15.800781 20.125 -17.65625 C 18.351562 -19.519531 16.160156 -20.453125 13.546875 -20.453125 C 10.929688 -20.453125 8.742188 -19.519531 6.984375 -17.65625 C 5.222656 -15.800781 4.34375 -13.414062 4.34375 -10.5 C 4.34375 -7.582031 5.222656 -5.195312 6.984375 -3.34375 Z M 6.984375 -3.34375 "/></g></g></g><g fill="#ffffff" fill-opacity="1"><g transform="translate(331.313907, 176.397294)"><g><path d="M 25.453125 -20.65625 C 24.941406 -20.65625 24.5 -20.484375 24.125 -20.140625 C 23.75 -19.804688 23.550781 -19.394531 23.53125 -18.90625 L 23.53125 -3.984375 C 23.53125 -2.628906 23.613281 -1.347656 23.78125 -0.140625 L 23.84375 0.484375 L 23.53125 0.484375 L 5.328125 -16.765625 L 5.328125 -2.171875 C 5.328125 -1.660156 5.507812 -1.226562 5.875 -0.875 C 6.25 -0.519531 6.707031 -0.34375 7.25 -0.34375 L 7.84375 -0.34375 L 7.84375 0 L 1.21875 0 L 1.21875 -0.34375 L 1.828125 -0.34375 C 2.359375 -0.34375 2.8125 -0.519531 3.1875 -0.875 C 3.5625 -1.226562 3.75 -1.660156 3.75 -2.171875 L 3.75 -17.15625 C 3.75 -18.582031 3.664062 -19.851562 3.5 -20.96875 L 3.4375 -21.53125 L 3.8125 -21.5 L 21.984375 -4.375 L 21.984375 -18.90625 C 21.941406 -19.394531 21.734375 -19.804688 21.359375 -20.140625 C 20.984375 -20.484375 20.539062 -20.65625 20.03125 -20.65625 L 19.4375 -20.65625 L 19.4375 -21.015625 L 26.046875 -21.015625 L 26.046875 -20.65625 Z M 25.453125 -20.65625 "/></g></g></g><g clip-path="url(#3027ad40a5)"><path fill="#f7591f" d="M 191.996094 137.578125 L 196.148438 142.761719 L 190.96875 138.605469 L 190.183594 151.722656 L 189.394531 138.605469 L 184.214844 142.761719 L 188.371094 137.578125 L 175.253906 136.792969 L 188.371094 136.007812 L 184.214844 130.824219 L 189.394531 134.980469 L 190.183594 121.863281 L 190.96875 134.980469 L 196.148438 130.824219 L 191.996094 136.007812 L 205.113281 136.792969 Z M 191.996094 137.578125 " fill-opacity="1" fill-rule="nonzero"/></g><g clip-path="url(#1400d640c1)"><path fill="#ffffff" d="M 26.585938 163.3125 L 29.132812 166.488281 L 25.957031 163.941406 L 25.476562 171.984375 L 24.992188 163.941406 L 21.816406 166.488281 L 24.363281 163.3125 L 16.324219 162.832031 L 24.363281 162.347656 L 21.816406 159.171875 L 24.992188 161.71875 L 25.476562 153.679688 L 25.957031 161.71875 L 29.132812 159.171875 L 26.585938 162.347656 L 34.628906 162.832031 Z M 26.585938 163.3125 " fill-opacity="1" fill-rule="nonzero"/></g></svg>